<svg width="24" height="24" viewBox="0 0 24 24" fill="none" xmlns="http://www.w3.org/2000/svg">
<path d="M22.4999 20.9998H1.50033C1.10252 20.9998 0.720995 20.8418 0.439696 20.5605C0.158398 20.2792 0.000366211 19.8977 0.000366211 19.4999V4.50021C0.000366211 4.1024 0.158398 3.72087 0.439696 3.43957C0.720995 3.15828 1.10252 3.00024 1.50033 3.00024H22.4999C22.8977 3.00024 23.2792 3.15828 23.5605 3.43957C23.8418 3.72087 23.9998 4.1024 23.9998 4.50021V19.4999C23.9998 19.8977 23.8418 20.2792 23.5605 20.5605C23.2792 20.8418 22.8977 20.9998 22.4999 20.9998Z" fill="#EAEAEA"/>
<path d="M3.0003 20.9998H1.50033C1.10252 20.9998 0.720995 20.8418 0.439696 20.5605C0.158398 20.2792 0.000366211 19.8977 0.000366211 19.4999V4.50021C0.000366207 4.30323 0.0391639 4.10818 0.114544 3.9262C0.189925 3.74421 0.300411 3.57886 0.439696 3.43957C0.578981 3.30029 0.744336 3.1898 0.926321 3.11442C1.10831 3.03904 1.30335 3.00024 1.50033 3.00024C1.69731 3.00024 1.89236 3.03904 2.07435 3.11442C2.25633 3.1898 2.42169 3.30029 2.56097 3.43957C2.70026 3.57886 2.81074 3.74421 2.88612 3.9262C2.9615 4.10818 3.0003 4.30323 3.0003 4.50021V20.9998Z" fill="#D54C3F"/>
<path d="M20.9999 20.9998H22.4998C22.8977 20.9998 23.2792 20.8418 23.5605 20.5605C23.8418 20.2792 23.9998 19.8977 23.9998 19.4999V4.50021C23.9998 4.1024 23.8418 3.72087 23.5605 3.43957C23.2792 3.15828 22.8977 3.00024 22.4998 3.00024C22.102 3.00024 21.7205 3.15828 21.4392 3.43957C21.1579 3.72087 20.9999 4.1024 20.9999 4.50021V20.9998Z" fill="#B63524"/>
<path d="M23.3588 5.73021C23.5203 5.6174 23.658 5.47389 23.7641 5.30786C23.8701 5.14183 23.9424 4.95654 23.9769 4.76256C24.0113 4.56859 24.0072 4.36972 23.9648 4.17733C23.9224 3.98493 23.8425 3.80277 23.7297 3.64125C23.6169 3.47973 23.4734 3.34201 23.3074 3.23595C23.1414 3.12989 22.9561 3.05757 22.7621 3.02312C22.5681 2.98867 22.3693 2.99276 22.1769 3.03517C21.9845 3.07757 21.8023 3.15746 21.6408 3.27026L12.001 10.2886L12 10.2891L11.999 10.2886L2.35922 3.27026C2.03301 3.04244 1.62966 2.95355 1.2379 3.02312C0.846148 3.09269 0.498077 3.31504 0.270261 3.64125C0.0424448 3.96746 -0.0464544 4.37081 0.0231201 4.76256C0.0926945 5.15432 0.315043 5.50239 0.641252 5.73021L0.601253 5.70071L12 14L23.3588 5.73021ZM23.3993 5.70071L12 14L23.3993 5.70071Z" fill="#DE5145"/>
<path d="M22.4995 3.00025C22.18 3.00025 21.8836 3.10024 21.6406 3.27024L12.0008 10.2886L11.9998 10.2891L11.9988 10.2886L2.35898 3.27024C2.10723 3.09405 1.80728 2.99976 1.5 3.00025H22.4995Z" fill="#EFEFEF"/>
<path d="M3.00062 8.09403L0.47268 5.59009L0.47168 5.59209C0.524679 5.64209 0.581177 5.68809 0.641176 5.73008L0.601177 5.70058L3.00112 7.44805L3.00062 8.11203" fill="#C64132"/>
<path d="M10.3338 15.2956L3 21L3.0005 8.03174L10.3323 15.2936" fill="#E3E3E3"/>
<path d="M10.3341 15.2956L12 14.0001L3.00073 7.44824V8.03173L10.3326 15.2936L10.3341 15.2956Z" fill="url(#paint0_linear)"/>
<path d="M16.03 20.9997H20.9994V7.44751L11.9996 13.9999L10.3322 15.2933L16.03 20.9997Z" fill="url(#paint1_linear)"/>
<defs>
<linearGradient id="paint0_linear" x1="3.00073" y1="11.3722" x2="12" y2="11.3722" gradientUnits="userSpaceOnUse">
<stop stop-color="#C8C8C8"/>
<stop offset="1" stop-color="#CDCDCD"/>
</linearGradient>
<linearGradient id="paint1_linear" x1="10.3322" y1="14.2234" x2="20.9994" y2="14.2234" gradientUnits="userSpaceOnUse">
<stop stop-color="#D9D9D9"/>
<stop offset="1" stop-color="#E2E2E2"/>
</linearGradient>
</defs>
</svg>
