<svg width="24" height="24" viewBox="0 0 24 24" fill="none" xmlns="http://www.w3.org/2000/svg">
<path d="M1.56521 1.66625C-0.315007 3.61924 0.0698086 5.69385 0.0698086 11.9964C0.0698086 17.2303 -0.843381 22.4772 3.93591 23.7124C5.42831 24.0962 18.6516 24.0962 20.142 23.7104C22.1319 23.197 23.7509 21.5829 23.9722 18.7686C24.0031 18.3758 24.0031 5.62406 23.9712 5.2233C23.736 2.22553 21.8906 0.497844 19.4591 0.147921C18.9018 0.0671697 18.7902 0.0432434 15.931 0.0382587C5.7892 0.0432434 3.56605 -0.408367 1.56521 1.66625Z" fill="url(#paint0_linear)"/>
<path d="M12.031 3.16771C8.41118 3.16771 4.97376 2.8457 3.6608 6.21532C3.11847 7.60704 3.19723 9.41448 3.19723 12.0025C3.19723 14.2735 3.12445 16.408 3.6608 17.7887C4.97077 21.1603 8.4361 20.8373 12.029 20.8373C15.4954 20.8373 19.0694 21.1982 20.3983 17.7887C20.9416 16.383 20.8619 14.6025 20.8619 12.0025C20.8619 8.55114 21.0523 6.32299 19.3784 4.65014C17.6836 2.95536 15.3917 3.16771 12.027 3.16771H12.031ZM11.2395 4.7598C18.7902 4.74784 19.7513 3.90843 19.2209 15.5695C19.0325 19.6938 15.8921 19.2412 12.032 19.2412C4.9937 19.2412 4.79132 19.0398 4.79132 11.9985C4.79132 4.87545 5.3496 4.76379 11.2395 4.75781V4.7598ZM16.7465 6.22629C16.1613 6.22629 15.6868 6.70083 15.6868 7.28603C15.6868 7.87123 16.1613 8.34577 16.7465 8.34577C17.3317 8.34577 17.8063 7.87123 17.8063 7.28603C17.8063 6.70083 17.3317 6.22629 16.7465 6.22629ZM12.031 7.46548C9.52575 7.46548 7.495 9.49722 7.495 12.0025C7.495 14.5078 9.52575 16.5385 12.031 16.5385C14.5363 16.5385 16.5661 14.5078 16.5661 12.0025C16.5661 9.49722 14.5363 7.46548 12.031 7.46548ZM12.031 9.05758C15.9241 9.05758 15.929 14.9474 12.031 14.9474C8.13901 14.9474 8.13303 9.05758 12.031 9.05758Z" fill="white"/>
<defs>
<linearGradient id="paint0_linear" x1="1.61108" y1="22.4364" x2="23.8481" y2="3.19053" gradientUnits="userSpaceOnUse">
<stop stop-color="#FFDD55"/>
<stop offset="0.5" stop-color="#FF543E"/>
<stop offset="1" stop-color="#C837AB"/>
</linearGradient>
</defs>
</svg>
