<svg width="24" height="24" viewBox="0 0 24 24" fill="none" xmlns="http://www.w3.org/2000/svg">
<path d="M18 0H6C2.68629 0 0 2.68629 0 6V18C0 21.3137 2.68629 24 6 24H18C21.3137 24 24 21.3137 24 18V6C24 2.68629 21.3137 0 18 0Z" fill="#4188DD"/>
<path d="M12.005 4C7.58396 4 4 7.32213 4 11.42C4 13.7544 5.16322 15.8365 6.98131 17.1966L7.01366 19.8129C7.01525 19.9542 7.1681 20.042 7.29117 19.9721L9.7911 18.5524C10.4942 18.7396 11.237 18.84 12.005 18.84C16.426 18.84 20.01 15.5179 20.01 11.42C20.01 7.32213 16.426 4 12.005 4ZM12.6128 13.8116L10.9017 12.0306C10.8015 11.9262 10.6439 11.9014 10.5164 11.9701L7.51389 13.5869C7.39955 13.6484 7.2874 13.5021 7.37632 13.4076L10.9244 9.64659C11.0262 9.53881 11.1977 9.53881 11.2993 9.64679L13.0098 11.4619C13.1103 11.5687 13.2699 11.5941 13.3987 11.524L16.3492 9.91755C16.4636 9.85542 16.5763 10.0019 16.4872 10.0966L12.9862 13.8098C12.8852 13.917 12.715 13.9178 12.6128 13.8116Z" fill="white"/>
</svg>
