<svg width="24" height="24" viewBox="0 0 24 24" fill="none" xmlns="http://www.w3.org/2000/svg">
<rect width="24" height="24" rx="6" fill="#00AFF0"/>
<path d="M12.0969 19.0496C8.53036 19.0496 4.47785 14.7535 4.80195 11.1869C5.12604 7.78262 9.66526 4.62147 13.0289 5.1078C15.9876 5.51282 18.6221 9.24162 18.4595 12.2003C18.298 15.3204 15.2174 19.0496 12.0969 19.0496Z" fill="#00AFF0"/>
<path d="M14.6509 20.8723C14.4073 20.7914 14.0426 20.7105 13.8401 20.6291C13.5969 20.5079 13.3131 20.5079 12.4217 20.5482C11.5707 20.5885 11.1246 20.5482 10.5171 20.4669C7.27459 19.9 4.6807 17.5493 3.74869 14.3072C3.58645 13.6993 3.54618 13.3752 3.54618 11.9162C3.54618 10.3353 3.50552 10.214 3.30301 9.56548C2.12784 6.36367 4.51884 3 7.92316 3C8.61201 3 9.46309 3.20289 9.94942 3.44568C10.2739 3.60791 10.4764 3.64819 11.7325 3.64819C12.8674 3.64819 13.3131 3.68884 13.8803 3.85108C16.434 4.49965 18.5005 6.16116 19.5947 8.47123C20.2836 9.88957 20.5271 11.3489 20.3645 13.0101C20.2836 13.9022 20.2836 13.9831 20.4861 14.5097C21.1347 16.4148 20.5268 18.6029 18.9462 19.9C18.4595 20.3054 17.4872 20.7511 16.8793 20.9133C16.271 21.0349 15.2987 21.0349 14.6904 20.8727H14.6509V20.8723ZM13.5563 17.7518C14.894 17.4684 16.0688 16.6576 16.5149 15.6853C17.0822 14.5097 16.9199 13.1317 16.1501 12.2806C15.5016 11.5511 14.5289 11.1461 12.2188 10.5788C10.6785 10.214 10.3138 10.0518 9.98969 9.68706C9.70587 9.36259 9.66522 9.1198 9.90876 8.75505C10.1519 8.34965 10.7598 8.10648 11.5703 8.06621C12.7458 7.98528 13.2724 8.26872 13.9613 9.36297C14.4883 10.1738 15.0149 10.3763 15.7045 10.0518C16.5958 9.60613 16.5149 8.14714 15.5419 7.29606C14.6098 6.52629 13.5969 6.20181 11.8944 6.20181C10.1113 6.20181 8.89507 6.56656 8.08464 7.37699C7.43607 8.02556 7.31487 8.3903 7.31487 9.40324C7.31487 10.4568 7.43645 10.7809 8.1253 11.3892C8.85479 12.0781 9.46271 12.3216 11.6508 12.8482C13.1911 13.213 13.5965 13.4155 13.9609 13.8209C14.1235 14.0238 14.2044 14.1856 14.2044 14.5504C14.2044 14.9558 14.1638 15.0367 13.8397 15.3612C13.3534 15.8471 12.6239 16.0496 11.6919 16.0098C10.5976 15.9284 10.1113 15.6044 9.54402 14.4695C9.13861 13.6997 8.81452 13.4159 8.28753 13.4159C7.11198 13.4159 6.70695 14.3885 7.31487 15.6446C7.84185 16.7393 8.89545 17.4687 10.2329 17.7522C11.0433 17.9144 12.8268 17.9144 13.5969 17.7522H13.5563V17.7518Z" fill="white"/>
</svg>
