<svg width="24" height="24" viewBox="0 0 24 24" fill="none" xmlns="http://www.w3.org/2000/svg">
<path d="M18 0H6C2.68629 0 0 2.68629 0 6V18C0 21.3137 2.68629 24 6 24H18C21.3137 24 24 21.3137 24 18V6C24 2.68629 21.3137 0 18 0Z" fill="#4591BD"/>
<path fill-rule="evenodd" clip-rule="evenodd" d="M15.7242 17.5377C15.9122 17.6707 16.1542 17.7037 16.3702 17.6227C16.5852 17.5407 16.7442 17.3557 16.7922 17.1317C17.2992 14.7497 18.5292 8.71974 18.9902 6.55374C19.0252 6.38974 18.9672 6.21974 18.8392 6.11074C18.7102 6.00174 18.5322 5.97074 18.3742 6.02874C15.9282 6.93474 8.3952 9.76074 5.3162 10.8997C5.1212 10.9727 4.9942 11.1597 5.0002 11.3667C5.0072 11.5727 5.1462 11.7517 5.3462 11.8117C6.7272 12.2247 8.5392 12.7997 8.5392 12.7997C8.5392 12.7997 9.3862 15.3577 9.8272 16.6577C9.8832 16.8217 10.0112 16.9497 10.1792 16.9937C10.3482 17.0377 10.5272 16.9917 10.6532 16.8727C11.3622 16.2037 12.4582 15.1687 12.4582 15.1687C12.4582 15.1687 14.5422 16.6957 15.7242 17.5377ZM9.3012 12.4757L10.2812 15.7067L10.4992 13.6607C10.4992 13.6607 14.2822 10.2477 16.4402 8.30274C16.5032 8.24574 16.5112 8.14974 16.4592 8.08274C16.4072 8.01574 16.3112 7.99974 16.2402 8.04574C13.7402 9.64174 9.3012 12.4757 9.3012 12.4757Z" fill="white"/>
</svg>
