<svg width="24" height="24" viewBox="0 0 24 24" fill="none" xmlns="http://www.w3.org/2000/svg">
<path d="M18 0H6C2.68629 0 0 2.68629 0 6V18C0 21.3137 2.68629 24 6 24H18C21.3137 24 24 21.3137 24 18V6C24 2.68629 21.3137 0 18 0Z" fill="#7D3DAF"/>
<path d="M19.59 7.73626L19.5852 7.7173C19.2018 6.16744 17.4735 4.50436 15.8862 4.15836L15.8683 4.15468C13.301 3.66491 10.6979 3.66491 8.1311 4.15468L8.11267 4.15836C6.52594 4.50436 4.79755 6.16744 4.41364 7.7173L4.40943 7.73626C3.93546 9.9007 3.93546 12.0957 4.40943 14.2601L4.41364 14.2791C4.78117 15.7628 6.38085 17.3495 7.90886 17.7858V19.5159C7.90886 20.1421 8.67194 20.4496 9.10588 19.9978L10.8588 18.1757C11.2389 18.197 11.6193 18.2088 11.9997 18.2088C13.292 18.2088 14.5849 18.0866 15.8683 17.8418L15.8862 17.8381C17.4735 17.4921 19.2018 15.829 19.5852 14.2791L19.59 14.2602C20.0639 12.0957 20.0639 9.9007 19.59 7.73626ZM18.2028 13.9462C17.9469 14.9574 16.6345 16.2144 15.5918 16.4467C14.2267 16.7062 12.8509 16.8172 11.4764 16.7791C11.4491 16.7784 11.4228 16.789 11.4037 16.8086C11.2086 17.0088 10.1239 18.1224 10.1239 18.1224L8.76252 19.5195C8.66299 19.6233 8.48815 19.5527 8.48815 19.4095V16.5435C8.48815 16.4961 8.45434 16.4559 8.40784 16.4468C8.40758 16.4467 8.40731 16.4467 8.40705 16.4466C7.36433 16.2144 6.0525 14.9573 5.79604 13.9462C5.36947 11.9898 5.36947 10.0065 5.79604 8.05008C6.0525 7.03896 7.36433 5.7819 8.40705 5.54966C10.7911 5.09623 13.2083 5.09623 15.5918 5.54966C16.6351 5.7819 17.9469 7.03896 18.2028 8.05008C18.6299 10.0065 18.6299 11.9898 18.2028 13.9462Z" fill="white"/>
<path d="M14.2675 15.2692C14.1072 15.2205 13.9545 15.1878 13.8126 15.1289C12.3425 14.519 10.9894 13.7321 9.91771 12.5259C9.30824 11.8399 8.83122 11.0655 8.42798 10.246C8.23677 9.85734 8.07562 9.45347 7.91136 9.05224C7.76159 8.68634 7.98219 8.30832 8.21449 8.03263C8.43246 7.7739 8.71294 7.57589 9.0167 7.42996C9.25379 7.31605 9.48766 7.38172 9.66082 7.58268C10.0351 8.01715 10.379 8.47384 10.6574 8.97746C10.8286 9.28722 10.7816 9.66586 10.4714 9.87667C10.3959 9.92791 10.3272 9.98805 10.257 10.0459C10.1953 10.0966 10.1374 10.1479 10.0951 10.2166C10.0179 10.3422 10.0142 10.4904 10.064 10.627C10.4466 11.6786 11.0916 12.4963 12.15 12.9367C12.3193 13.0072 12.4894 13.0892 12.6846 13.0665C13.0113 13.0283 13.1171 12.6699 13.3461 12.4826C13.5699 12.2996 13.8559 12.2972 14.097 12.4497C14.3382 12.6023 14.5719 12.7662 14.8043 12.9317C15.0324 13.0943 15.2594 13.2532 15.4698 13.4385C15.6721 13.6167 15.7418 13.8504 15.6279 14.0922C15.4193 14.535 15.1159 14.9033 14.6782 15.1385C14.5546 15.2048 14.4069 15.2263 14.2675 15.2692C14.1072 15.2205 14.4069 15.2263 14.2675 15.2692Z" fill="white"/>
<path d="M12.0034 6.92365C13.9264 6.97753 15.5058 8.2537 15.8443 10.1548C15.9019 10.4788 15.9225 10.81 15.9481 11.1387C15.9589 11.277 15.8806 11.4084 15.7313 11.4102C15.5772 11.412 15.5079 11.2831 15.4978 11.1448C15.478 10.8712 15.4643 10.5964 15.4266 10.325C15.2275 8.8925 14.0853 7.70738 12.6594 7.45307C12.4449 7.41478 12.2253 7.40473 12.008 7.38192C11.8706 7.36749 11.6906 7.35917 11.6602 7.18839C11.6346 7.0452 11.7555 6.93118 11.8918 6.92386C11.9289 6.92181 11.9662 6.92349 12.0034 6.92365C13.9264 6.97753 11.9662 6.92349 12.0034 6.92365Z" fill="white"/>
<path d="M14.9256 10.7118C14.9224 10.7359 14.9207 10.7923 14.9067 10.8455C14.8557 11.0386 14.563 11.0627 14.4956 10.8679C14.4756 10.8101 14.4726 10.7443 14.4725 10.682C14.4718 10.2747 14.3833 9.86787 14.1779 9.5135C13.9668 9.14929 13.6442 8.8431 13.2659 8.65784C13.0371 8.54582 12.7897 8.4762 12.539 8.43471C12.4294 8.41659 12.3186 8.40558 12.2085 8.39026C12.0751 8.37172 12.0038 8.28667 12.0102 8.15517C12.0161 8.03194 12.1061 7.94331 12.2404 7.95089C12.6817 7.97596 13.108 8.07133 13.5003 8.27909C14.2981 8.7016 14.7539 9.36852 14.8869 10.259C14.8929 10.2994 14.9026 10.3394 14.9056 10.3799C14.9132 10.4799 14.9179 10.58 14.9256 10.7118C14.9224 10.7359 14.9179 10.58 14.9256 10.7118Z" fill="white"/>
<path d="M13.7297 10.6653C13.5688 10.6682 13.4827 10.5791 13.4661 10.4316C13.4545 10.3288 13.4454 10.2245 13.4209 10.1245C13.3726 9.92743 13.2678 9.74479 13.102 9.62404C13.0238 9.567 12.9351 9.52545 12.8422 9.49864C12.7242 9.46457 12.6016 9.47395 12.4839 9.44509C12.356 9.41375 12.2853 9.31022 12.3054 9.19025C12.3237 9.08108 12.4299 8.99587 12.5492 9.00451C13.2947 9.05833 13.8276 9.44377 13.9036 10.3214C13.909 10.3834 13.9153 10.4488 13.9016 10.5081C13.878 10.6095 13.8029 10.6603 13.7297 10.6653C13.5688 10.6682 13.8029 10.6603 13.7297 10.6653Z" fill="white"/>
</svg>
