<svg width="24" height="24" viewBox="0 0 24 24" fill="none" xmlns="http://www.w3.org/2000/svg">
<path d="M18 0H6C2.68629 0 0 2.68629 0 6V18C0 21.3137 2.68629 24 6 24H18C21.3137 24 24 21.3137 24 18V6C24 2.68629 21.3137 0 18 0Z" fill="#6ABB62"/>
<path d="M3.60693 20.402L4.78252 16.2267C4.02655 14.9424 3.62853 13.4812 3.62853 11.9801C3.62853 7.35812 7.38874 3.5979 12.0107 3.5979C16.6326 3.5979 20.3928 7.35812 20.3928 11.9801C20.3928 16.602 16.6326 20.3622 12.0107 20.3622C10.5705 20.3622 9.16032 19.9936 7.91279 19.2936L3.60693 20.402ZM8.13292 17.7686L8.38949 17.9253C9.47719 18.5893 10.7294 18.9403 12.0107 18.9403C15.8486 18.9403 18.9709 15.818 18.9709 11.9801C18.9709 8.14216 15.8486 5.01979 12.0107 5.01979C8.17279 5.01979 5.05042 8.14216 5.05042 11.9801C5.05042 13.3173 5.43048 14.6159 6.14943 15.7355L6.32222 16.0045L5.64524 18.409L8.13292 17.7686Z" fill="white"/>
<path d="M9.65646 8.07873L9.11256 8.04908C8.94173 8.03976 8.77415 8.09685 8.64502 8.20902C8.38134 8.43799 7.95973 8.88068 7.83023 9.45754C7.63711 10.3177 7.93555 11.3709 8.70796 12.4242C9.48036 13.4774 10.9198 15.1626 13.4651 15.8824C14.2854 16.1143 14.9306 15.958 15.4284 15.6395C15.8227 15.3873 16.0945 14.9825 16.1924 14.5248L16.2793 14.1192C16.3069 13.9903 16.2414 13.8595 16.1216 13.8043L14.2835 12.957C14.1641 12.902 14.0226 12.9368 13.9424 13.0408L13.2207 13.9763C13.1662 14.047 13.0729 14.075 12.9886 14.0454C12.4945 13.8717 10.8391 13.1784 9.93073 11.4288C9.89134 11.3529 9.90113 11.2608 9.95701 11.196L10.6467 10.3982C10.7171 10.3167 10.7349 10.2022 10.6926 10.1032L9.90024 8.24941C9.85806 8.15072 9.76353 8.08458 9.65646 8.07873Z" fill="white"/>
</svg>
