<svg width="1920" height="200" fill="none" xmlns="http://www.w3.org/2000/svg"><g clip-path="url(#clip0)"><path d="M0 0h1920v200H0V0z" fill="#fff"/><path d="M333.488 119.047C170.422 97.7293 102.03 118.533.030273 168.935v30L1919.97 199.989c0-77.902.01-131.503.01-152.503-178.5 105-400.45-36.6485-522.45-45.4526-146-10.53605-244.5 57.5-319.5 66-152 17.2267-250-61.5-375-46C589.401 36.1235 465.314 136.281 333.488 119.047z" fill="#4364DA"/><path d="M928.798 147.848c137.932-76.2566 295.742 20.868 420.742 36.368 168.13 20.849 431.68-124.3326 570.49-55.743v71.489c-478.23 0-1530.007-.128-1920.00229-.128.15979-36.299-.057983-77.522-.057983-91.79C89.649 179.122 239.448 210.312 460.124 129.861c200.399-73.0582 385.145 64.165 468.674 17.987z" fill="#F0F0F9"/><path d="M1196.03 104.792h74V200h-74v-95.208z" fill="#4364DA"/><path d="M1196.03 97.7922h74v6.9998h-74v-6.9998z" fill="#0C2455"/><path opacity=".2" d="M1264.03 97.7922h6V199.928h-6V97.7922z" fill="#415680"/><path d="M1238.13 115.928h20.65v3.73h-20.65v-3.73zM1238.13 125.754h20.65v3.731h-20.65v-3.731zM1238.13 135.581h20.65v3.73h-20.65v-3.73zM1238.13 145.316h20.65v3.731h-20.65v-3.731zM1238.13 155.143h20.65v3.73h-20.65v-3.73zM1238.13 164.969h20.65v3.731h-20.65v-3.731zM1238.13 174.705h20.65v3.73h-20.65v-3.73zM1238.13 184.531h20.65v3.731h-20.65v-3.731zM1238.13 194.358h20.65v3.73h-20.65v-3.73zM1208.92 115.928h20.66v3.73h-20.66v-3.73zM1208.92 125.754h20.66v3.731h-20.66v-3.731zM1208.92 135.581h20.66v3.73h-20.66v-3.73zM1208.92 145.316h20.66v3.731h-20.66v-3.731zM1208.92 155.143h20.66v3.731h-20.66v-3.731zM1208.92 164.969h20.66v3.731h-20.66v-3.731zM1208.92 174.705h20.66v3.731h-20.66v-3.731zM1208.92 184.531h20.66v3.731h-20.66v-3.731zM1208.92 194.358h20.66v3.731h-20.66v-3.731z" fill="#fff"/><path d="M887.03 50.7922h74V200h-74V50.7922z" fill="#435FBA"/><path d="M887.03 43.7922h74v7h-74v-7z" fill="#0C2455"/><path opacity=".2" d="M955.03 43.7922h6V145.928h-6V43.7922z" fill="#415680"/><path d="M929.128 61.9277h20.654v3.7305h-20.654v-3.7305zM929.128 71.7542h20.654v3.7304h-20.654v-3.7304zM929.128 81.5808h20.654v3.7305h-20.654v-3.7305zM929.128 91.3162h20.654v3.7304h-20.654v-3.7304zM929.128 101.143h20.654v3.73h-20.654v-3.73zM929.128 151.143h20.654v3.73h-20.654v-3.73zM929.128 110.969h20.654v3.731h-20.654v-3.731zM929.128 160.969h20.654v3.731h-20.654v-3.731zM929.128 120.705h20.654v3.73h-20.654v-3.73zM929.128 170.705h20.654v3.73h-20.654v-3.73zM929.128 130.531h20.654v3.731h-20.654v-3.731zM929.128 140.358h20.654v3.73h-20.654v-3.73zM899.922 61.9277h20.654v3.7305h-20.654v-3.7305zM899.922 71.7542h20.654v3.7304h-20.654v-3.7304zM899.922 81.5811h20.654v3.7304h-20.654v-3.7304zM899.922 91.3162h20.654v3.7304h-20.654v-3.7304zM899.922 101.143h20.654v3.731h-20.654v-3.731zM899.922 110.969h20.654v3.731h-20.654v-3.731zM899.922 120.705h20.654v3.731h-20.654v-3.731zM899.922 130.531h20.654v3.731h-20.654v-3.731zM899.922 140.358h20.654v3.731h-20.654v-3.731zM1233.03 69.928h-74V199.95h74V69.928z" fill="#fff"/><path d="M1233.03 62.928h-75v7h75v-7z" fill="#0C2455"/><path opacity=".2" d="M1163.82 63.1389H1158V200h5.82V63.1389z" fill="#415680"/><path d="M1223.14 170.866h-55.96v29.047h55.96v-29.047z" fill="#202F3E"/><path d="M1220.14 174.324h-49.86v25.581h49.86v-25.581z" fill="#4364DA"/><path d="M1186.47 199.928v-25.58h-1.46v25.58h1.46zM1205.36 199.928v-25.55h-1.45v25.55h1.45z" fill="#202F3E"/><path d="M1190.93 81.0635h-20.65v3.7304h20.65v-3.7304zM1190.93 90.8899h-20.65v3.7304h20.65v-3.7304zM1190.93 100.717h-20.65v3.73h20.65v-3.73zM1190.93 110.452h-20.65v3.73h20.65v-3.73zM1190.93 120.279h-20.65v3.73h20.65v-3.73zM1190.93 130.105h-20.65v3.73h20.65v-3.73zM1190.93 139.841h-20.65v3.73h20.65v-3.73zM1190.93 149.667h-20.65v3.73h20.65v-3.73zM1190.93 159.494h-20.65v3.73h20.65v-3.73zM1220.14 81.0635h-20.66v3.7304h20.66v-3.7304zM1220.14 90.8899h-20.66v3.7304h20.66v-3.7304zM1220.14 100.717h-20.66v3.73h20.66v-3.73zM1220.14 110.452h-20.66v3.73h20.66v-3.73zM1220.14 120.279h-20.66v3.73h20.66v-3.73zM1220.14 130.105h-20.66v3.73h20.66v-3.73zM1220.14 139.841h-20.66v3.73h20.66v-3.73zM1220.14 149.667h-20.66v3.73h20.66v-3.73zM1220.14 159.494h-20.66v3.73h20.66v-3.73z" fill="#5483E0"/><path d="M1095.03 200V50.6068l64.96-21.6788V200h-64.96z" fill="#202F3E"/><path d="M1095.03 199.834V56.4863l64.96-21.5717V199.834h-64.96z" fill="#4364DA"/><path d="M1159.99 42.9874h-23.74l7.91-2.8119h15.83v2.8119zM1159.9 60.2214h-64.87v2.8119h64.87v-2.8119zM1159.9 80.177h-64.87v2.8119h64.87V80.177zM1159.9 100.223h-64.87v2.812h64.87v-2.812zM1159.9 120.269h-64.87v2.812h64.87v-2.812zM1159.9 140.315h-64.87v2.812h64.87v-2.812zM1159.9 160.27h-64.87v2.812h64.87v-2.812zM1159.9 180.317h-64.87v2.812h64.87v-2.812z" fill="#fff"/><path opacity=".2" d="M1095.03 57.0469l9.01-3.084V200h-9.01V57.0469z" fill="#304352"/><path d="M1129.51 199.896h-4V46.4341l4-1.3606V199.896zM898.03 150.928h-151v48.997h151v-48.997z" fill="#fff"/><path d="M897.557 166.303H743.334l7.277-34.567h146.946v34.567z" fill="#202F3E"/><path d="M931.145 199.928h-70.954v-67.151l34.638-28.471 36.316 28.471v67.151z" fill="#202F3E"/><path d="M895.318 138.699h-26.87v33.492h26.87v-33.492zM926.665 138.699h-29.109v33.492h29.109v-33.492zM895.388 137.66v-24.478l-26.591 24.478h26.591zM926.665 173.232h-29.109v26.696h29.109v-26.696zM895.318 173.232h-26.87v26.696h26.87v-26.696z" fill="#fff"/><path d="M896.188 138.685h-6.158v33.509h6.158v-33.509zM890.174 117.95l-.144 19.712h6.158v-25.633l-6.014 5.921zM896.188 173.227h-6.158v26.69h6.158v-26.69z" fill="#4364DA"/><path d="M897.556 137.659h28.76l-28.76-25.309v25.309z" fill="#fff"/><path d="M927.357 138.685h-8.327v33.491h8.327v-33.491zM927.357 173.232h-8.327v26.696h8.327v-26.696zM897.53 112.011v7.35l20.932 18.298h8.327l-29.259-25.648z" fill="#4364DA"/><path d="M767.196 155.737v-12.806c0-2.589 2.1-4.758 4.759-4.758 2.589 0 4.758 2.099 4.758 4.758v12.806h-9.517z" fill="#1C7C63"/><path d="M767.196 155.737v-12.806c0-2.589 2.1-4.758 4.759-4.758 2.589 0 4.758 2.099 4.758 4.758v12.806h-9.517z" fill="#fff"/><path d="M772.513 138.243c-.209 0-.419-.07-.629-.07-2.589 0-4.759 2.099-4.759 4.758v12.806h1.26v-12.806c.07-2.379 1.819-4.408 4.128-4.688z" fill="#4F81E4"/><path d="M779.538 144.261h-7.479v-5.808h-.419v5.808h-7.269v.35h7.269v11.126h.419v-11.126h7.479v-.35z" fill="#202F3E" stroke="#202F3E"/><path d="M787.908 155.737v-12.806c0-2.589 2.099-4.758 4.758-4.758 2.589 0 4.759 2.099 4.759 4.758v12.806h-9.517z" fill="#1C7C63"/><path d="M787.908 155.737v-12.806c0-2.589 2.099-4.758 4.758-4.758 2.589 0 4.759 2.099 4.759 4.758v12.806h-9.517z" fill="#fff"/><path d="M793.226 138.243c-.21 0-.419-.07-.629-.07-2.589 0-4.759 2.099-4.759 4.758v12.806h1.26v-12.806c0-2.379 1.819-4.408 4.128-4.688z" fill="#4F81E4"/><path d="M800.285 144.261h-7.548v-5.808h-.42v5.808h-7.269v.35h7.269v11.126h.42v-11.126h7.548v-.35z" fill="#202F3E" stroke="#202F3E"/><path d="M812.259 155.737v-12.806c0-2.589 2.1-4.758 4.759-4.758 2.589 0 4.758 2.099 4.758 4.758v12.806h-9.517z" fill="#1C7C63"/><path d="M812.259 155.737v-12.806c0-2.589 2.1-4.758 4.759-4.758 2.589 0 4.758 2.099 4.758 4.758v12.806h-9.517z" fill="#fff"/><path d="M817.647 138.243c-.21 0-.42-.07-.629-.07-2.59 0-4.759 2.099-4.759 4.758v12.806h1.26v-12.806c0-2.379 1.819-4.408 4.128-4.688z" fill="#4F81E4"/><path d="M824.601 144.261h-7.479v-5.808h-.419v5.808h-7.269v.35h7.269v11.126h.419v-11.126h7.479v-.35z" fill="#202F3E" stroke="#202F3E"/><path d="M894.828 101.857l-41.635 35.197 2.519 2.869 39.186-33.098 40.305 31.838 2.309-3.009-42.684-33.797z" fill="#202F3E"/><path d="M841.559 172.74h-14.065v26.14h14.065v-26.14z" fill="#202F3E" stroke="#202F3E" stroke-width="2"/><path d="M815.907 173.094h-30.509v8.816h30.509v-8.816z" fill="#D5DBE5" stroke="#202F3E"/><path d="M785.048 172.744v9.516h31.208v-9.516h-31.208zm10.146 8.816h-9.446v-8.187h9.446v8.187zm11.056 0h-10.356v-8.187h10.356v8.187zm9.307 0h-8.607v-8.187h8.607v8.187z" fill="#0C2455" stroke="#202F3E"/><path d="M1104.71 110.161l-11.08 5.581.17-5.665 10.91.084z" fill="#34495E"/><path d="M1095.38 199.71H957.598v-91.132l140.032.666-2.25 90.466z" fill="#fff"/><path d="M1104.71 101.497H955.515l22.408-21.0754h113.127l13.66 21.0754z" fill="#202F3E"/><path d="M1104.71 101.497H955.515v8.664h149.195v-8.664z" fill="#4364DA"/><path d="M1097.63 110.16H957.598l9.413 5.081 130.539-1.416.08-3.665z" fill="#D5DBE5"/><path d="M1030.56 111.98l9.06 72.652h2.73l3.5 15.293h-15.86v-90.598l.57 2.653z" fill="#D5DBE5"/><path d="M1000.66 77.0896l-33.649 32.4874v78.138h62.979v-78.138l-29.33-32.4874z" fill="#fff"/><path d="M1022.03 160.928h-17v22h17v-22z" fill="#202F3E"/><path d="M1019.33 163.389h-12V179.8h12v-16.411z" fill="#D5DBE5"/><path d="M1021.03 171.428h-14v1h14v-1z" fill="#0C2455"/><path d="M1013.03 160.928v20h1v-20h-1z" fill="#0C2455"/><path d="M1022.03 132.928h-17v22h17v-22z" fill="#202F3E"/><path d="M1019.33 135.389h-12V151.8h12v-16.411z" fill="#D5DBE5"/><path d="M1021.03 143.428h-14v1h14v-1z" fill="#0C2455"/><path d="M1013.03 132.928v20h1v-20h-1z" fill="#0C2455"/><path d="M1022.03 104.928h-17v22h17v-22z" fill="#202F3E"/><path d="M1019.33 107.389h-12V123.8h12v-16.411z" fill="#D5DBE5"/><path d="M1021.03 115.428h-14v1h14v-1z" fill="#0C2455"/><path d="M1013.03 104.928v20h1v-20h-1z" fill="#0C2455"/><path d="M1058.03 121.928h-17v22h17v-22z" fill="#202F3E"/><path d="M1055.33 124.389h-12V140.8h12v-16.411z" fill="#D5DBE5"/><path d="M1057.03 132.428h-14v1h14v-1z" fill="#0C2455"/><path d="M1049.03 121.928v20h1v-20h-1z" fill="#0C2455"/><path d="M1058.03 152.928h-17v22h17v-22z" fill="#202F3E"/><path d="M1055.33 155.389h-12V171.8h12v-16.411z" fill="#D5DBE5"/><path d="M1057.03 163.428h-14v1h14v-1z" fill="#0C2455"/><path d="M1049.03 152.928v20h1v-20h-1z" fill="#0C2455"/><path d="M1085.03 121.928h-17v22h17v-22z" fill="#202F3E"/><path d="M1082.33 124.389h-12V140.8h12v-16.411z" fill="#D5DBE5"/><path d="M1084.03 132.428h-14v1h14v-1z" fill="#0C2455"/><path d="M1076.03 121.928v20h1v-20h-1z" fill="#0C2455"/><path d="M1085.03 152.928h-17v22h17v-22z" fill="#202F3E"/><path d="M1082.33 155.389h-12V171.8h12v-16.411z" fill="#D5DBE5"/><path d="M1084.03 163.428h-14v1h14v-1z" fill="#0C2455"/><path d="M1076.03 152.928v20h1v-20h-1z" fill="#0C2455"/><path d="M992.03 160.928h-17v22h17v-22z" fill="#202F3E"/><path d="M989.328 163.389h-12V179.8h12v-16.411z" fill="#D5DBE5"/><path d="M991.03 171.428h-14v1h14v-1z" fill="#0C2455"/><path d="M983.03 160.928v20h1v-20h-1z" fill="#0C2455"/><path d="M992.03 132.928h-17v22h17v-22z" fill="#202F3E"/><path d="M989.328 135.389h-12V151.8h12v-16.411z" fill="#D5DBE5"/><path d="M991.03 143.428h-14v1h14v-1z" fill="#202F3E"/><path d="M983.03 132.928v20h1v-20h-1zM992.03 104.928h-17v22h17v-22z" fill="#202F3E"/><path d="M989.328 107.389h-12V123.8h12v-16.411z" fill="#D5DBE5"/><path d="M991.03 115.428h-14v1h14v-1z" fill="#0C2455"/><path d="M983.03 104.928v20h1v-20h-1z" fill="#0C2455"/><path d="M965.594 114.493l-2.249-2.333 37.405-36.4029 32.4 36.1529-2.41 2.166-30.16-33.654-34.986 34.071z" fill="#4364DA"/><path d="M955.515 110.16l2.082.916v-.916h-2.082z" fill="#282320"/><path d="M568.239 162.303h50.032v37.609h-50.032v-37.609z" fill="#F0F0F9"/><path fill-rule="evenodd" clip-rule="evenodd" d="M1438.73 199.951h-4.77l.45-14.273-6.61-9.838c-1.91 1.183-4.16 1.866-6.57 1.866-6.9 0-12.49-5.592-12.49-12.49 0-6.345 4.73-11.585 10.86-12.384v-.034c0-9.286 7.52-16.814 16.81-16.814 9.04 0 16.41 7.132 16.8 16.076 4.98 1.249 8.66 5.752 8.66 11.117 0 6.331-5.13 11.462-11.46 11.462-2.1 0-4.07-.566-5.76-1.554l-6.3 8.262.38 18.604zm-9.53-25.121l5.21 5.778.38-11.074c-.59-.056-1.18-.145-1.75-.261-.75 2.192-2.09 4.108-3.84 5.557zm11.39-5.742c-.82.209-1.66.359-2.51.443l.27 7.542 4.74-5.074c-.99-.821-1.84-1.805-2.5-2.911z" fill="#F0F0F9"/><path fill-rule="evenodd" clip-rule="evenodd" d="M1438.07 169.558l.27 7.515 4.71-5.019 1.49 1.095-6.2 8.198.38 18.604h-4.77l.45-14.273-6.51-9.765 1.35-1.024 5.16 5.719.38-11.05h3.29z" fill="#202F3E"/><path d="M1438.07 169.558v-.1h.09l.01.096-.1.004zm.27 7.515l.07.069-.16.175-.01-.24.1-.004zm4.71-5.019l-.08-.069.06-.064.08.052-.06.081zm1.49 1.095l.06-.08.08.06-.06.081-.08-.061zm-6.2 8.198l-.1.002v-.034l.02-.028.08.06zm.38 18.604l.1-.002v.102h-.1v-.1zm-4.77 0v.1h-.1v-.103l.1.003zm.45-14.273l.09-.055.02.026-.01.032-.1-.003zm-6.51-9.765l-.08.056-.05-.078.07-.057.06.079zm1.35-1.024l-.06-.08.08-.055.06.068-.08.067zm5.16 5.719l.1.004v.247l-.17-.184.07-.067zm.38-11.05l-.1-.004v-.096h.1v.1zm3.39-.004l.27 7.516-.2.007-.27-7.516.2-.007zm.1 7.451l4.7-5.02.15.137-4.71 5.02-.14-.137zm4.84-5.032l1.49 1.096-.12.161-1.49-1.096.12-.161zm1.51 1.237l-6.2 8.198-.16-.121 6.2-8.198.16.121zm-6.18 8.135l.38 18.604-.2.004-.38-18.604.2-.004zm.28 18.706h-4.77v-.2h4.77v.2zm-4.87-.103l.45-14.273.2.006-.45 14.273-.2-.006zm.47-14.214l-6.51-9.765.17-.111 6.51 9.765-.17.111zm-6.49-9.9l1.35-1.025.12.16-1.35 1.024-.12-.159zm1.49-1.012l5.16 5.719-.15.134-5.16-5.719.15-.134zm4.99 5.783l.37-11.051.2.007-.38 11.051-.19-.007zm.47-11.147h3.29v.2h-3.29v-.2z" fill="#202F3E"/><path d="M689.578 22.7405H632.03V199.928h57.548V22.7405z" fill="#fff"/><path d="M689.579 34.553h-46.587v165.375h46.587V34.553z" fill="#4364DA"/><path d="M689.579 47.2742h-46.587v3.1803h46.587v-3.1803zM689.579 66.8103h-46.587v3.1803h46.587v-3.1803zM689.579 86.3462h-46.587v3.1803h46.587v-3.1803zM689.579 105.882h-46.587v3.181h46.587v-3.181zM689.579 125.418h-46.587v3.18h46.587v-3.18zM689.579 144.954h-46.587v3.181h46.587v-3.181zM689.579 164.49h-46.587v3.181h46.587v-3.181zM689.579 184.026h-46.587v3.181h46.587v-3.181z" fill="#fff"/><path opacity=".2" d="M689.579 34.553H642.992v165.375h4.842V39.4597h41.745V34.553z" fill="#304352"/><path d="M689.578 10.928H632.03v4.9976h57.548V10.928z" fill="#5286ED"/><path d="M687.478 15.9255H634.04v6.8149h53.438v-6.8149zM726.756 74.9885h-37.177v6.8149h37.177v-6.8149z" fill="#0C2455"/><path d="M667.655 34.553h-2.74v165.375h2.74V34.553z" fill="#EFF6FB"/><path d="M726.756 80.1675h-37.178V199.928h37.178V80.1675z" fill="#fff"/><path d="M726.757 89.5264h-23.476v4.0889h23.476v-4.0889zM726.756 99.4304H703.28v4.0886h23.476v-4.0886zM726.756 109.244H703.28v4.089h23.476v-4.089zM726.756 119.057H703.28v4.089h23.476v-4.089zM726.756 128.961H703.28v4.089h23.476v-4.089zM726.756 138.775H703.28v4.089h23.476v-4.089zM726.756 148.589H703.28v4.089h23.476v-4.089zM726.756 158.493H703.28v4.089h23.476v-4.089zM726.756 168.307H703.28v4.089h23.476v-4.089zM726.756 178.12H703.28v4.089h23.476v-4.089zM726.756 188.024H703.28v4.089h23.476v-4.089z" fill="#4364DA"/><path d="M696.429 80.1675h-6.851V199.928h6.851V80.1675z" fill="#0C2455"/><path d="M957.03 113.831v-3.341h2.312l6.532 4.651 1.156-1.31v86.22h-10v-86.22z" fill="#D5DBE5"/><path d="M1400.74 139.074h-70.69v60.854h70.69v-60.854z" fill="#F0F0F9"/><path d="M1406.47 141.483h-99.25v-26.507h70.68l28.57 26.507z" fill="#202F3E"/><path d="M1400.74 169.712v30.239h-63.06v-30.239l31.9-29.72 31.16 29.72z" fill="#fff"/><path d="M1332.45 169.499v3.133l3.54-.607 32.54-30.221 32.27 29.024 4.42-1.026-36.53-33.304-36.24 33.001z" fill="#202F3E"/><path d="M1337.68 199.956h-74.7v-57.038l36.95-33.966 37.75 34.023v56.981z" fill="#fff"/><path d="M1309.03 128.332h-17v22h17v-22z" fill="#202F3E"/><path d="M1306.33 130.793h-12v16.411h12v-16.411z" fill="#D5DBE5"/><path d="M1308.03 138.832h-14v1h14v-1z" fill="#202F3E"/><path d="M1300.03 128.332v20h1v-20h-1zM1340.21 169.253h-81.99l.74-1.434 4.02-7.746h74.7l2.18 7.746.35 1.434z" fill="#202F3E"/><path d="M1340.03 168.928h-82v2h82v-2z" fill="#202F3E"/><path d="M1299.79 160.563l-18.08 10.373h35.01l-16.93-10.373zM1283.03 170.936h33v29.007h-33v-29.007z" fill="#D5DBE5"/><path d="M1258.96 140.394v3.557l4.02-.689 36.95-34.31 37.64 33.851 4.01 1.148v-3.213l-41.48-37.81-41.14 37.466z" fill="#202F3E"/><path d="M1300.1 105.911l-41.14 38.04h4.07l37.07-34.312 37.49 34.312h3.99l-41.48-38.04z" fill="#4364DA"/><path d="M1306.03 176.253h-12v23.652h12v-23.652z" fill="#202F3E"/><path d="M1380.47 160.991h-25.01v7.23h25.01v-7.23z" fill="#D5DBE5"/><path d="M1355.17 160.704v7.803h25.59v-7.803h-25.59zm8.26 7.23h-7.74v-6.656h7.74v6.656zm9.07 0h-8.43v-6.656h8.49v6.656h-.06zm7.69 0h-7.06v-6.656h7.06v6.656z" fill="#202F3E" stroke="#202F3E"/><path d="M1386.28 174.646h-33.97v25.282h33.97v-25.282z" fill="#4364DA"/><path d="M1386.28 175.277h-33.97v1.354h33.97v-1.354zM1386.28 177.195h-33.97v1.354h33.97v-1.354zM1386.28 179.113h-33.97v1.354h33.97v-1.354zM1386.28 181.087h-33.97v1.354h33.97v-1.354zM1386.28 183.005h-33.97v1.354h33.97v-1.354zM1386.28 184.98h-33.97v1.354h33.97v-1.354zM1386.28 186.897h-33.97v1.354h33.97v-1.354zM1386.28 188.872h-33.97v1.354h33.97v-1.354zM1386.28 190.79h-33.97v1.354h33.97v-1.354zM1386.28 192.708h-33.97v1.354h33.97v-1.354zM1386.28 194.682h-33.97v1.354h33.97v-1.354zM1386.28 196.6h-33.97v1.354h33.97V196.6zM1386.28 198.574h-33.97v1.354h33.97v-1.354zM482.981 163.041H594.03v36.887H482.981v-36.887z" fill="#202F3E"/><path d="M482.981 163.041h101.904v36.824H482.981v-36.824z" fill="#fff"/><path d="M486.901 125.154h104.516l2.613 37.887H482.981l3.92-37.887zM577.597 169.574h-12.859v19.743h12.859v-19.743z" fill="#202F3E"/><path d="M575.552 171.783h-9.076v14.727h9.076v-14.727z" fill="#D5DBE5"/><path d="M576.839 178.996H566.25v.898h10.589v-.898z" fill="#202F3E"/><path d="M570.788 169.573v17.949h.756v-17.949h-.756z" fill="#202F3E"/><path fill="#4364DA" d="M575.739 119.928h6.53226v15.6774H575.739z"/><path d="M520.869 169.574h-22.21v19.744h22.21v-19.744z" fill="#202F3E"/><path d="M518.256 172.186h-16.984v14.371h16.984v-14.371z" fill="#D5DBE5"/><path d="M519.562 178.998h-18.291v.897h18.291v-.897z" fill="#202F3E"/><path d="M509.11 169.573v17.949h1.307v-17.949h-1.307zM557.449 169.573h-15.678v30.331h15.678v-30.331z" fill="#202F3E"/><path d="M554.836 172.163h-10.451v27.765h10.451v-27.765z" fill="#202F3E"/><path d="M485.176 162.041l23.934-27.525 23.935 27.525h-47.869z" fill="#fff" stroke="#fff" stroke-width="2"/><path d="M509.38 130.041l-29.677 33h3.241l26.497-28.915 25.852 28.915h3.935l-29.848-33z" fill="#4364DA"/><path fill-rule="evenodd" clip-rule="evenodd" d="M748.215 199.741h-5.867l.558-12.573-8.148-12.112c-2.35 1.456-5.12 2.297-8.087 2.297-8.493 0-15.378-6.885-15.378-15.377 0-7.813 5.826-14.264 13.371-15.248l-.001-.041c0-11.434 9.269-20.702 20.702-20.702 11.129 0 20.205 8.781 20.681 19.792 6.128 1.538 10.667 7.083 10.667 13.688 0 7.794-6.318 14.112-14.112 14.112-2.588 0-5.013-.697-7.098-1.913l-7.752 10.172.464 17.905zm-11.729-25.929l6.42 7.114.458-13.635c-.726-.069-1.443-.178-2.146-.321-.926 2.699-2.581 5.058-4.732 6.842zm14.021-7.07c-1.004.257-2.036.442-3.093.546l.337 9.286 5.839-6.248c-1.217-1.011-2.262-2.222-3.083-3.584z" fill="#FF8C42"/><path fill-rule="evenodd" clip-rule="evenodd" d="M747.406 167.32l.335 9.254 5.795-6.18 1.837 1.348-7.632 10.094.465 17.905h-5.868l.558-12.573-8.019-12.022 1.665-1.261 6.354 7.041.458-13.606h4.052z" fill="#202F3E"/><path d="M747.406 167.32v-.1h.096l.004.097-.1.003zm.335 9.254l.073.068-.164.175-.009-.24.1-.003zm5.795-6.18l-.073-.069.061-.064.072.052-.06.081zm1.837 1.348l.059-.08.081.06-.061.081-.079-.061zm-7.632 10.094l-.1.003-.001-.035.021-.028.08.06zm.465 17.905l.1-.003.002.103h-.102v-.1zm-5.868 0v.1h-.104l.005-.104.099.004zm.558-12.573l.083-.055.018.027-.001.033-.1-.005zm-8.019-12.022l-.083.055-.052-.078.075-.057.06.08zm1.665-1.261l-.061-.08.073-.056.062.069-.074.067zm6.354 7.041l.1.003-.008.248-.166-.184.074-.067zm.458-13.606l-.1-.003.003-.097h.097v.1zm4.152-.003l.335 9.253-.2.007-.335-9.253.2-.007zm.162 9.188l5.795-6.18.146.137-5.795 6.18-.146-.137zm5.928-6.192l1.836 1.349-.119.161-1.836-1.349.119-.161zm1.856 1.49l-7.631 10.093-.16-.12 7.632-10.094.159.121zm-7.611 10.03l.465 17.905-.2.006-.465-17.905.2-.006zm.365 18.008h-5.868v-.2h5.868v.2zm-5.967-.104l.557-12.573.2.009-.558 12.572-.199-.008zm.574-12.513l-8.019-12.023.166-.111 8.019 12.023-.166.111zm-7.996-12.158l1.664-1.261.121.159-1.665 1.261-.12-.159zm1.799-1.248l6.354 7.041-.148.134-6.355-7.041.149-.134zm6.18 7.105l.458-13.606.2.007-.458 13.605-.2-.006zm.558-13.703h4.052v.2h-4.052v-.2z" fill="#202F3E"/><path fill-rule="evenodd" clip-rule="evenodd" d="M478.987 199.738h-2.891l.275-8.66-4.016-5.969c-1.157.718-2.523 1.132-3.985 1.132-4.184 0-7.577-3.392-7.577-7.577 0-3.85 2.871-7.029 6.589-7.514l-.001-.021c0-5.634 4.568-10.201 10.202-10.201 5.484 0 9.956 4.327 10.191 9.753 3.02.758 5.256 3.491 5.256 6.745 0 3.841-3.113 6.954-6.954 6.954-1.275 0-2.47-.343-3.498-.942l-3.82 5.013.229 11.287zm-5.78-15.242l3.164 3.506.226-6.719c-.358-.034-.711-.088-1.058-.158-.456 1.33-1.272 2.492-2.332 3.371zm6.91-3.483c-.495.126-1.004.217-1.524.268l.165 4.576 2.878-3.078c-.6-.498-1.115-1.095-1.519-1.766z" fill="#FF8C42"/><path fill-rule="evenodd" clip-rule="evenodd" d="M478.59 181.298l.165 4.56 2.856-3.046.905.665-3.761 4.974.229 11.287h-2.891l.274-8.66-3.951-5.924.82-.622 3.131 3.47.226-6.704h1.997z" fill="#202F3E"/><path d="M478.59 181.298v-.1h.096l.004.096-.1.004zm.165 4.56l.073.068-.164.175-.009-.24.1-.003zm2.856-3.046l-.073-.068.061-.065.071.053-.059.08zm.905.665l.059-.081.082.06-.062.081-.079-.06zm-3.761 4.974l-.1.002-.001-.035.021-.028.08.061zm.229 11.287l.1-.002.002.102h-.102v-.1zm-2.891 0v.1h-.104l.004-.103.1.003zm.274-8.66l.084-.055.017.026-.001.032-.1-.003zm-3.951-5.924l-.083.055-.053-.078.075-.057.061.08zm.82-.622l-.06-.079.073-.056.061.068-.074.067zm3.131 3.47l.1.004-.008.247-.166-.184.074-.067zm.226-6.704l-.1-.004.003-.096h.097v.1zm2.097-.004l.165 4.56-.2.007-.165-4.56.2-.007zm-.008 4.495l2.856-3.045.146.137-2.856 3.045-.146-.137zm2.988-3.057l.905.664-.119.161-.904-.664.118-.161zm.925.805l-3.76 4.974-.16-.121 3.761-4.973.159.12zm-3.74 4.912l.229 11.287-.2.004-.229-11.287.2-.004zm.129 11.389h-2.891v-.2h2.891v.2zm-2.991-.103l.274-8.66.2.006-.274 8.66-.2-.006zm.291-8.601l-3.951-5.925.166-.111 3.952 5.925-.167.111zm-3.929-6.06l.821-.621.121.159-.821.622-.121-.16zm.955-.609l3.132 3.47-.149.134-3.131-3.47.148-.134zm2.957 3.534l.226-6.705.2.007-.226 6.705-.2-.007zm.326-6.801h1.997v.2h-1.997v-.2z" fill="#202F3E"/><path d="M632.035 109.878h-37.178v7h37.178v-7z" fill="#0C2455"/><path d="M632.035 116.118h-37.178V200h37.178v-83.882z" fill="#fff"/><path d="M607.31 124.878h-5v4h5v-4zM617.31 124.878h-5v4h5v-4zM607.31 134.878h-5v4h5v-4zM617.31 134.878h-5v4h5v-4zM607.31 143.878h-5v4h5v-4zM617.31 143.878h-5v4h5v-4zM607.31 153.878h-5v4h5v-4zM617.31 153.878h-5v4h5v-4zM607.31 163.878h-5v4h5v-4zM617.31 163.878h-5v4h5v-4zM607.31 173.878h-5v4h5v-4zM617.31 173.878h-5v4h5v-4zM607.31 183.878h-5v4h5v-4zM617.31 183.878h-5v4h5v-4zM607.31 193.878h-5v4h5v-4zM617.31 193.878h-5v4h5v-4z" fill="#4364DA"/><path d="M632.036 114.712h-6.851V200h6.851v-85.288z" fill="#0C2455"/><path fill-rule="evenodd" clip-rule="evenodd" d="M1094.55 200h-4.77l.46-14.273-6.62-9.838c-1.91 1.183-4.16 1.866-6.57 1.866-6.9 0-12.49-5.592-12.49-12.489 0-6.346 4.73-11.586 10.86-12.384v-.034c0-9.287 7.53-16.815 16.82-16.815 9.03 0 16.41 7.132 16.79 16.076 4.98 1.249 8.67 5.753 8.67 11.117 0 6.331-5.14 11.462-11.47 11.462-2.1 0-4.07-.566-5.76-1.553l-6.3 8.261.38 18.604zm-9.53-25.121l5.22 5.778.37-11.074c-.59-.056-1.17-.145-1.74-.261-.76 2.192-2.1 4.108-3.85 5.557zm11.39-5.742c-.81.209-1.65.359-2.51.443l.27 7.542 4.75-5.074c-.99-.821-1.84-1.805-2.51-2.911z" fill="#FF8C42"/><path fill-rule="evenodd" clip-rule="evenodd" d="M1093.89 169.607l.27 7.515 4.71-5.019 1.49 1.095-6.2 8.198.38 18.604h-4.76l.45-14.273-6.51-9.764 1.35-1.025 5.16 5.719.37-11.05h3.29z" fill="#202F3E"/><path d="M1093.89 169.607v-.1h.1v.096l-.1.004zm.27 7.515l.08.069-.17.175-.01-.24.1-.004zm4.71-5.019l-.07-.068.06-.065.07.052-.06.081zm1.49 1.095l.06-.08.08.06-.06.081-.08-.061zm-6.2 8.198l-.1.002v-.034l.02-.028.08.06zm.38 18.604l.1-.002v.102h-.1v-.1zm-4.76 0v.1h-.11l.01-.103.1.003zm.45-14.273l.08-.055.02.026v.032l-.1-.003zm-6.51-9.764l-.09.055-.05-.078.08-.057.06.08zm1.35-1.025l-.06-.08.07-.055.06.068-.07.067zm5.16 5.719l.1.004-.01.247-.17-.184.08-.067zm.37-11.05l-.1-.004v-.096h.1v.1zm3.39-.004l.27 7.516-.2.007-.27-7.516.2-.007zm.1 7.451l4.71-5.019.14.136-4.7 5.02-.15-.137zm4.84-5.032l1.49 1.096-.12.161-1.49-1.095.12-.162zm1.51 1.237l-6.2 8.198-.16-.121 6.2-8.198.16.121zm-6.18 8.135l.38 18.604-.2.004-.38-18.604.2-.004zm.28 18.706h-4.76v-.2h4.76v.2zm-4.86-.103l.45-14.273.2.006-.45 14.273-.2-.006zm.47-14.214l-6.52-9.765.17-.111 6.51 9.765-.16.111zm-6.49-9.9l1.35-1.025.12.16-1.35 1.024-.12-.159zm1.48-1.012l5.16 5.719-.15.134-5.16-5.719.15-.134zm4.99 5.783l.37-11.051.2.007-.37 11.051-.2-.007zm.47-11.147h3.29v.2h-3.29v-.2z" fill="#202F3E"/><path fill-rule="evenodd" clip-rule="evenodd" d="M1282.19 185.322l-9.71 8.777v5.806h-2.49v-6.911l-7.81-4.804.49-.76 7.32 4.492v-15.169h2.49v15.688l8.88-8.052.83.933z" fill="#202F3E"/><path fill-rule="evenodd" clip-rule="evenodd" d="M1286.89 178.55c2.76 2.764 2.76 7.36 0 10.124-2.77 2.765-7.36 2.765-10.13 0-2.76-2.764-2.76-7.36 0-10.124 2.8-2.799 7.36-2.799 10.13 0z" fill="#FF8C42"/><path fill-rule="evenodd" clip-rule="evenodd" d="M1286.96 178.549c2.76 2.765 2.76 7.361 0 10.125-1.42 1.417-3.32 2.108-5.19 2.073v-14.271c1.9-.034 3.77.657 5.19 2.073z" fill="#FF8C42"/><path fill-rule="evenodd" clip-rule="evenodd" d="M1281.5 161.652c5.6 5.598 5.6 14.755 0 20.319-5.6 5.597-14.76 5.597-20.32 0-5.6-5.598-5.6-14.756 0-20.319 5.6-5.598 14.75-5.598 20.32 0z" fill="#FF8C42"/><path fill-rule="evenodd" clip-rule="evenodd" d="M1271.23 186.152c3.74 0 7.43-1.383 10.27-4.182 5.6-5.597 5.6-14.755 0-20.318-2.84-2.799-6.53-4.216-10.27-4.181v28.681zM1259.52 178.55c4.04-.519 7.81 2.384 8.29 6.427.52 4.043-2.38 7.809-6.42 8.293-4.05.519-7.78-2.384-8.3-6.427-.52-4.043 2.39-7.775 6.43-8.293z" fill="#FF8C42"/><path fill-rule="evenodd" clip-rule="evenodd" d="M1266.43 190.298c-1.17 1.59-2.94 2.696-5.04 2.972-4.05.519-7.78-2.384-8.3-6.427-.27-2.073.38-4.112 1.63-5.633l11.71 9.088z" fill="#FF8C42"/><path fill-rule="evenodd" clip-rule="evenodd" d="M937.431 179.964c-1.808 1.125-3.943 1.774-6.229 1.774-6.528 0-11.819-5.291-11.819-11.819 0-5.903 4.327-10.795 9.984-11.677-.281-.868-.433-1.794-.433-2.755 0-4.941 4.005-8.946 8.946-8.946s8.946 4.005 8.946 8.946c0 1.015-.169 1.99-.481 2.899h.08c6.527 0 11.819 5.292 11.819 11.819 0 6.528-5.292 11.819-11.819 11.819-2.38 0-4.595-.703-6.45-1.913l-2.544-.147z" fill="#F0F0F9"/><path d="M937.464 179.845l2.422.196.592 19.904h-3.675l.661-20.1z" fill="#202F3E"/><path d="M935.424 180.964l.861-.401 2.209 8.436-1.323.391-1.747-8.426z" fill="#202F3E"/></g><defs><clipPath id="clip0"><path d="M0 0h1920v200H0V0z" fill="#fff"/></clipPath></defs></svg>