<svg width="470" height="190" viewBox="0 0 470 185" fill="none" xmlns="http://www.w3.org/2000/svg">
<path d="M174.092 11.8125H116.544V189H174.092V11.8125Z" fill="white"/>
<path d="M174.092 23.625H127.506V189H174.092V23.625Z" fill="#4364DA"/>
<path d="M174.092 36.3463H127.506V39.5265H174.092V36.3463Z" fill="white"/>
<path d="M174.092 55.8823H127.506V59.0625H174.092V55.8823Z" fill="white"/>
<path d="M174.092 75.4183H127.506V78.5986H174.092V75.4183Z" fill="white"/>
<path d="M174.092 94.9543H127.506V98.1346H174.092V94.9543Z" fill="white"/>
<path d="M174.092 114.49H127.506V117.671H174.092V114.49Z" fill="white"/>
<path d="M174.092 134.026H127.506V137.207H174.092V134.026Z" fill="white"/>
<path d="M174.092 153.562H127.506V156.743H174.092V153.562Z" fill="white"/>
<path d="M174.092 173.098H127.506V176.279H174.092V173.098Z" fill="white"/>
<path opacity="0.2" d="M174.092 23.625H132.347H127.506V28.5317V189H132.347V28.5317H174.092V23.625Z" fill="#304352"/>
<path d="M174.092 0H116.544V4.99759H174.092V0Z" fill="#5286ED"/>
<path d="M171.991 4.9975H118.554V11.8124H171.991V4.9975Z" fill="#0C2455"/>
<path d="M211.269 64.0605H174.092V70.8754H211.269V64.0605Z" fill="#0C2455"/>
<path d="M152.169 23.625H149.429V189H152.169V23.625Z" fill="#EFF6FB"/>
<path d="M211.27 69.2395H174.092V189H211.27V69.2395Z" fill="white"/>
<path d="M211.271 78.5984H187.795V82.6874H211.271V78.5984Z" fill="#4364DA"/>
<path d="M211.27 88.5024H187.794V92.5913H211.27V88.5024Z" fill="#4364DA"/>
<path d="M211.27 98.3162H187.794V102.405H211.27V98.3162Z" fill="#4364DA"/>
<path d="M211.27 108.13H187.794V112.218H211.27V108.13Z" fill="#4364DA"/>
<path d="M211.27 118.034H187.794V122.123H211.27V118.034Z" fill="#4364DA"/>
<path d="M211.27 127.847H187.794V131.936H211.27V127.847Z" fill="#4364DA"/>
<path d="M211.27 137.661H187.794V141.75H211.27V137.661Z" fill="#4364DA"/>
<path d="M211.27 147.565H187.794V151.654H211.27V147.565Z" fill="#4364DA"/>
<path d="M211.27 157.379H187.794V161.468H211.27V157.379Z" fill="#4364DA"/>
<path d="M211.27 167.192H187.794V171.281H211.27V167.192Z" fill="#4364DA"/>
<path d="M211.27 177.096H187.794V181.185H211.27V177.096Z" fill="#4364DA"/>
<path d="M180.943 69.2395H174.092V189H180.943V69.2395Z" fill="#0C2455"/>
<path d="M348.545 11.8125H406.093V189H348.545V11.8125Z" fill="white"/>
<path d="M348.544 23.625H395.131V189H348.544V23.625Z" fill="#4364DA"/>
<path d="M348.544 36.3462H395.131V39.5265H348.544V36.3462Z" fill="white"/>
<path d="M348.544 55.8823H395.131V59.0626H348.544V55.8823Z" fill="white"/>
<path d="M348.544 75.4182H395.131V78.5985H348.544V75.4182Z" fill="white"/>
<path d="M348.544 94.9543H395.131V98.1346H348.544V94.9543Z" fill="white"/>
<path d="M348.544 114.49H395.131V117.671H348.544V114.49Z" fill="white"/>
<path d="M348.544 134.026H395.131V137.207H348.544V134.026Z" fill="white"/>
<path d="M348.544 153.562H395.131V156.743H348.544V153.562Z" fill="white"/>
<path d="M348.544 173.098H395.131V176.279H348.544V173.098Z" fill="white"/>
<path opacity="0.2" d="M348.544 23.625H390.29H395.131V28.5317V189H390.29V28.5317H348.544V23.625Z" fill="#304352"/>
<path d="M350.646 4.99756H404.083V11.8125H350.646V4.99756Z" fill="#0C2455"/>
<path d="M378.468 23.625H381.208V189H378.468V23.625Z" fill="#EFF6FB"/>
<path d="M361.468 23.625H364.208V189H361.468V23.625Z" fill="#EFF6FB"/>
<path d="M406.083 63H443.261V70H406.083V63Z" fill="#0C2455"/>
<path d="M406.083 69.2395H443.261V189H406.083V69.2395Z" fill="white"/>
<path d="M430.809 78.0001H435.809V82.0001H430.809V78.0001Z" fill="#4364DA"/>
<path d="M420.809 78.0001H425.809V82.0001H420.809V78.0001Z" fill="#4364DA"/>
<path d="M430.809 87.9999H435.809V91.9999H430.809V87.9999Z" fill="#4364DA"/>
<path d="M420.809 87.9999H425.809V91.9999H420.809V87.9999Z" fill="#4364DA"/>
<path d="M430.809 97H435.809V101H430.809V97Z" fill="#4364DA"/>
<path d="M420.809 97H425.809V101H420.809V97Z" fill="#4364DA"/>
<path d="M430.809 107H435.809V111H430.809V107Z" fill="#4364DA"/>
<path d="M420.809 107H425.809V111H420.809V107Z" fill="#4364DA"/>
<path d="M430.809 117H435.809V121H430.809V117Z" fill="#4364DA"/>
<path d="M420.809 117H425.809V121H420.809V117Z" fill="#4364DA"/>
<path d="M430.809 127H435.809V131H430.809V127Z" fill="#4364DA"/>
<path d="M420.809 127H425.809V131H420.809V127Z" fill="#4364DA"/>
<path d="M430.809 137H435.809V141H430.809V137Z" fill="#4364DA"/>
<path d="M420.809 137H425.809V141H420.809V137Z" fill="#4364DA"/>
<path d="M430.809 147H435.809V151H430.809V147Z" fill="#4364DA"/>
<path d="M420.809 147H425.809V151H420.809V147Z" fill="#4364DA"/>
<path d="M430.809 156H435.809V160H430.809V156Z" fill="#4364DA"/>
<path d="M420.809 156H425.809V160H420.809V156Z" fill="#4364DA"/>
<path d="M430.809 166H435.809V170H430.809V166Z" fill="#4364DA"/>
<path d="M420.809 166H425.809V170H420.809V166Z" fill="#4364DA"/>
<path d="M430.809 176H435.809V180H430.809V176Z" fill="#4364DA"/>
<path d="M420.809 176H425.809V180H420.809V176Z" fill="#4364DA"/>
<path d="M406.083 67.8341H412.934V189H406.083V67.8341Z" fill="#0C2455"/>
<path d="M348.544 58.928H274.544V188.95H348.544V58.928Z" fill="white"/>
<path d="M348.544 51.928H273.544V58.928H348.544V51.928Z" fill="#0C2455"/>
<path opacity="0.2" d="M279.332 52.1389H273.509V189H279.332V52.1389Z" fill="#415680"/>
<path d="M335.652 159.866H285.792V188.913H335.652V159.866Z" fill="#202F3E"/>
<path d="M331.962 163.324H289.451V188.905H331.962V163.324Z" fill="#4364DA"/>
<path d="M306.446 70.0634H285.792V73.7938H306.446V70.0634Z" fill="#5483E0"/>
<path d="M306.446 79.8896H285.792V83.6201H306.446V79.8896Z" fill="#5483E0"/>
<path d="M306.446 89.7164H285.792V93.4469H306.446V89.7164Z" fill="#5483E0"/>
<path d="M306.446 99.4517H285.792V103.182H306.446V99.4517Z" fill="#5483E0"/>
<path d="M306.446 109.279H285.792V113.009H306.446V109.279Z" fill="#5483E0"/>
<path d="M306.446 119.105H285.792V122.835H306.446V119.105Z" fill="#5483E0"/>
<path d="M306.446 128.841H285.792V132.571H306.446V128.841Z" fill="#5483E0"/>
<path d="M306.446 138.667H285.792V142.397H306.446V138.667Z" fill="#5483E0"/>
<path d="M306.446 148.494H285.792V152.224H306.446V148.494Z" fill="#5483E0"/>
<path d="M335.652 70.0634H314.998V73.7938H335.652V70.0634Z" fill="#5483E0"/>
<path d="M335.652 79.8898H314.998V83.6202H335.652V79.8898Z" fill="#5483E0"/>
<path d="M335.652 89.7166H314.998V93.447H335.652V89.7166Z" fill="#5483E0"/>
<path d="M335.652 99.4518H314.998V103.182H335.652V99.4518Z" fill="#5483E0"/>
<path d="M335.652 109.279H314.998V113.009H335.652V109.279Z" fill="#5483E0"/>
<path d="M335.652 119.105H314.998V122.835H335.652V119.105Z" fill="#5483E0"/>
<path d="M335.652 128.841H314.998V132.571H335.652V128.841Z" fill="#5483E0"/>
<path d="M335.652 138.667H314.998V142.397H335.652V138.667Z" fill="#5483E0"/>
<path d="M335.652 148.494H314.998V152.224H335.652V148.494Z" fill="#5483E0"/>
<path d="M210.544 189V39.6068L275.508 17.928V189H210.544Z" fill="#202F3E"/>
<path d="M210.544 188.834V45.4864L275.508 23.9146V188.834H210.544Z" fill="#4364DA"/>
<path d="M275.508 31.9874H251.761L259.677 29.1755H275.508V31.9874Z" fill="white"/>
<path d="M275.417 49.2214H210.544V52.0333H275.417V49.2214Z" fill="white"/>
<path d="M275.417 69.1769H210.544V71.9888H275.417V69.1769Z" fill="white"/>
<path d="M275.417 89.2233H210.544V92.0352H275.417V89.2233Z" fill="white"/>
<path d="M275.417 109.269H210.544V112.081H275.417V109.269Z" fill="white"/>
<path d="M275.417 129.315H210.544V132.127H275.417V129.315Z" fill="white"/>
<path d="M275.417 149.27H210.544V152.082H275.417V149.27Z" fill="white"/>
<path d="M275.417 169.317H210.544V172.128H275.417V169.317Z" fill="white"/>
<path opacity="0.2" d="M210.544 46.047L219.552 42.963V189H210.544V46.047Z" fill="#304352"/>
<path d="M245.028 188.896H241.024V35.4341L245.028 34.0735V188.896Z" fill="white"/>
<path d="M42.5439 58.9785H116.544V189H42.5439V58.9785Z" fill="#4364DA"/>
<path d="M42.5439 51.9785H116.544V58.9785H42.5439V51.9785Z" fill="#0C2455"/>
<path opacity="0.2" d="M110.544 51.9785H116.544V188.979H110.544V51.9785Z" fill="#415680"/>
<path d="M52.4248 159.953H108.381V189H52.4248V159.953Z" fill="#202F3E"/>
<path d="M55.4394 163.396H105.3V189H55.4394V163.396Z" fill="white"/>
<path d="M89.104 188.979V163.399H90.5598V188.979H89.104Z" fill="#202F3E"/>
<path d="M70.2012 189V163.451H71.657V189H70.2012Z" fill="#202F3E"/>
<path d="M84.642 70.1139H105.296V73.8443H84.642V70.1139Z" fill="white"/>
<path d="M84.642 79.9402H105.296V83.6706H84.642V79.9402Z" fill="white"/>
<path d="M84.642 89.767H105.296V93.4974H84.642V89.767Z" fill="white"/>
<path d="M84.642 99.5023H105.296V103.233H84.642V99.5023Z" fill="white"/>
<path d="M84.642 109.329H105.296V113.059H84.642V109.329Z" fill="white"/>
<path d="M84.642 119.155H105.296V122.886H84.642V119.155Z" fill="white"/>
<path d="M84.642 128.891H105.296V132.621H84.642V128.891Z" fill="white"/>
<path d="M84.642 138.717H105.296V142.448H84.642V138.717Z" fill="white"/>
<path d="M84.642 148.544H105.296V152.275H84.642V148.544Z" fill="white"/>
<path d="M55.436 70.1139H76.0898V73.8443H55.436V70.1139Z" fill="white"/>
<path d="M55.436 79.9403H76.0898V83.6707H55.436V79.9403Z" fill="white"/>
<path d="M55.436 89.7671H76.0898V93.4975H55.436V89.7671Z" fill="white"/>
<path d="M55.436 99.5024H76.0898V103.233H55.436V99.5024Z" fill="white"/>
<path d="M55.436 109.329H76.0898V113.06H55.436V109.329Z" fill="white"/>
<path d="M55.436 119.156H76.0898V122.886H55.436V119.156Z" fill="white"/>
<path d="M55.436 128.891H76.0898V132.622H55.436V128.891Z" fill="white"/>
<path d="M55.436 138.718H76.0898V142.448H55.436V138.718Z" fill="white"/>
<path d="M55.436 148.544H76.0898V152.275H55.436V148.544Z" fill="white"/>
<path fill-rule="evenodd" clip-rule="evenodd" d="M37.265 189.021H31.3979L31.9554 176.448L23.8073 164.335C21.458 165.792 18.6874 166.633 15.7204 166.633C7.22822 166.633 0.34301 159.748 0.34301 151.256C0.34301 143.443 6.16883 136.992 13.7142 136.008L13.7131 135.966C13.7131 124.533 22.9818 115.264 34.415 115.264C45.5438 115.264 54.6201 124.046 55.0954 135.057C61.224 136.594 65.7627 142.14 65.7627 148.745C65.7627 156.539 59.4444 162.856 51.6504 162.856C49.0628 162.856 46.638 162.16 44.5528 160.944L36.8007 171.116L37.265 189.021ZM25.5356 163.092L31.9554 170.206L32.4142 156.571C31.6874 156.502 30.971 156.393 30.2679 156.25C29.3419 158.949 27.6864 161.308 25.5356 163.092ZM39.557 156.022C38.5533 156.279 37.5209 156.464 36.4643 156.567L36.8007 165.854L42.6398 159.606C41.4226 158.595 40.3781 157.384 39.557 156.022Z" fill="#FF8C42"/>
<path fill-rule="evenodd" clip-rule="evenodd" d="M36.4558 156.6L36.791 165.854L42.5862 159.674L44.4224 161.022L36.791 171.116L37.2554 189.021H31.3882L31.9458 176.448L23.9269 164.426L25.5915 163.164L31.9458 170.206L32.4036 156.6H36.4558Z" fill="#202F3E"/>
<path d="M36.4558 156.6V156.5H36.5523L36.5558 156.597L36.4558 156.6ZM36.791 165.854L36.864 165.922L36.6998 166.097L36.6911 165.857L36.791 165.854ZM42.5862 159.674L42.5133 159.605L42.5739 159.541L42.6454 159.593L42.5862 159.674ZM44.4224 161.022L44.4816 160.942L44.5633 161.002L44.5021 161.083L44.4224 161.022ZM36.791 171.116L36.6911 171.118L36.6902 171.083L36.7113 171.056L36.791 171.116ZM37.2554 189.021L37.3554 189.018L37.358 189.121H37.2554V189.021ZM31.3882 189.021V189.121H31.2837L31.2883 189.017L31.3882 189.021ZM31.9458 176.448L32.0289 176.393L32.0471 176.42L32.0457 176.453L31.9458 176.448ZM23.9269 164.426L23.8437 164.481L23.7914 164.403L23.8665 164.346L23.9269 164.426ZM25.5915 163.164L25.5311 163.085L25.6043 163.029L25.6657 163.097L25.5915 163.164ZM31.9458 170.206L32.0457 170.209L32.0374 170.457L31.8715 170.273L31.9458 170.206ZM32.4036 156.6L32.3037 156.597L32.3069 156.5H32.4036V156.6ZM36.5558 156.597L36.891 165.85L36.6911 165.857L36.3559 156.604L36.5558 156.597ZM36.7181 165.785L42.5133 159.605L42.6592 159.742L36.864 165.922L36.7181 165.785ZM42.6454 159.593L44.4816 160.942L44.3632 161.103L42.527 159.754L42.6454 159.593ZM44.5021 161.083L36.8708 171.176L36.7113 171.056L44.3426 160.962L44.5021 161.083ZM36.891 171.113L37.3554 189.018L37.1554 189.024L36.6911 171.118L36.891 171.113ZM37.2554 189.121H31.3882V188.921H37.2554V189.121ZM31.2883 189.017L31.8459 176.444L32.0457 176.453L31.4881 189.025L31.2883 189.017ZM31.8626 176.504L23.8437 164.481L24.0101 164.37L32.0289 176.393L31.8626 176.504ZM23.8665 164.346L25.5311 163.085L25.6519 163.244L23.9873 164.505L23.8665 164.346ZM25.6657 163.097L32.02 170.139L31.8715 170.273L25.5173 163.231L25.6657 163.097ZM31.8458 170.203L32.3037 156.597L32.5036 156.604L32.0457 170.209L31.8458 170.203ZM32.4036 156.5H36.4558V156.7H32.4036V156.5Z" fill="#202F3E"/>
<path fill-rule="evenodd" clip-rule="evenodd" d="M446.511 188.887H441.746L442.199 174.614L435.581 164.776C433.673 165.959 431.422 166.642 429.012 166.642C422.115 166.642 416.523 161.051 416.523 154.153C416.523 147.807 421.254 142.567 427.383 141.769L427.382 141.735C427.382 132.449 434.91 124.92 444.196 124.92C453.235 124.92 460.607 132.053 460.993 140.996C465.971 142.245 469.657 146.749 469.657 152.113C469.657 158.444 464.525 163.575 458.195 163.575C456.093 163.575 454.124 163.009 452.43 162.022L446.134 170.284L446.511 188.887ZM436.984 163.766L442.199 169.545L442.571 158.47C441.981 158.414 441.399 158.326 440.828 158.21C440.076 160.401 438.731 162.317 436.984 163.766ZM448.373 158.024C447.557 158.233 446.719 158.383 445.861 158.467L446.134 166.01L450.877 160.935C449.888 160.114 449.04 159.13 448.373 158.024Z" fill="#FF8C42"/>
<path fill-rule="evenodd" clip-rule="evenodd" d="M445.853 158.494L446.125 166.01L450.832 160.99L452.324 162.086L446.125 170.284L446.503 188.887H441.737L442.19 174.615L435.677 164.85L437.029 163.825L442.19 169.545L442.562 158.494H445.853Z" fill="#202F3E"/>
<path d="M445.853 158.494V158.394H445.95L445.953 158.49L445.853 158.494ZM446.125 166.01L446.198 166.078L446.034 166.253L446.026 166.013L446.125 166.01ZM450.832 160.99L450.759 160.922L450.82 160.857L450.892 160.91L450.832 160.99ZM452.324 162.086L452.383 162.005L452.465 162.065L452.403 162.146L452.324 162.086ZM446.125 170.284L446.026 170.286L446.025 170.251L446.046 170.223L446.125 170.284ZM446.503 188.887L446.603 188.885L446.605 188.987H446.503V188.887ZM441.737 188.887V188.987H441.634L441.637 188.884L441.737 188.887ZM442.19 174.615L442.273 174.559L442.291 174.586L442.29 174.618L442.19 174.615ZM435.677 164.85L435.594 164.905L435.542 164.827L435.617 164.77L435.677 164.85ZM437.029 163.825L436.969 163.746L437.042 163.69L437.103 163.758L437.029 163.825ZM442.19 169.545L442.29 169.548L442.282 169.795L442.116 169.612L442.19 169.545ZM442.562 158.494L442.462 158.491L442.465 158.394H442.562V158.494ZM445.953 158.49L446.225 166.006L446.026 166.013L445.753 158.498L445.953 158.49ZM446.053 165.941L450.759 160.922L450.905 161.059L446.198 166.078L446.053 165.941ZM450.892 160.91L452.383 162.005L452.265 162.166L450.773 161.071L450.892 160.91ZM452.403 162.146L446.205 170.344L446.046 170.223L452.244 162.025L452.403 162.146ZM446.225 170.282L446.603 188.885L446.403 188.889L446.026 170.286L446.225 170.282ZM446.503 188.987H441.737V188.787H446.503V188.987ZM441.637 188.884L442.09 174.611L442.29 174.618L441.837 188.891L441.637 188.884ZM442.107 174.67L435.594 164.905L435.76 164.794L442.273 174.559L442.107 174.67ZM435.617 164.77L436.969 163.746L437.09 163.905L435.737 164.929L435.617 164.77ZM437.103 163.758L442.264 169.478L442.116 169.612L436.955 163.892L437.103 163.758ZM442.09 169.541L442.462 158.491L442.662 158.497L442.29 169.548L442.09 169.541ZM442.562 158.394H445.853V158.594H442.562V158.394Z" fill="#202F3E"/>
<path fill-rule="evenodd" clip-rule="evenodd" d="M186.412 169.04C184.603 170.164 182.469 170.814 180.182 170.814C173.655 170.814 168.363 165.522 168.363 158.994C168.363 153.091 172.691 148.199 178.347 147.317C178.066 146.449 177.914 145.524 177.914 144.562C177.914 139.622 181.919 135.616 186.86 135.616C191.801 135.616 195.807 139.622 195.807 144.562C195.807 145.578 195.637 146.553 195.326 147.462L195.405 147.462C201.933 147.462 207.225 152.753 207.225 159.281C207.225 165.809 201.933 171.1 195.405 171.1C193.026 171.1 190.81 170.396 188.956 169.186L186.412 169.04Z" fill="#FF8C42"/>
<path d="M186.444 168.92L188.867 169.117L189.459 189.021H185.783L186.444 168.92Z" fill="#202F3E"/>
<path d="M184.405 170.04L185.266 169.638L187.794 177.472L186.47 177.863L184.405 170.04Z" fill="#202F3E"/>
</svg>
