<svg width="30" height="30" viewBox="0 0 30 30" fill="none" xmlns="http://www.w3.org/2000/svg">
<rect width="30" height="30" fill="white"/>
<path fill-rule="evenodd" clip-rule="evenodd" d="M6.06158 6.44336L5.35447 7.15047L5.35576 7.15175L3.5892 8.91831C3.39393 9.11357 3.39393 9.43015 3.5892 9.62542C3.78446 9.82068 4.10104 9.82068 4.2963 9.62542L6.06286 7.85885L7.82935 9.62534C8.02461 9.8206 8.34119 9.8206 8.53646 9.62534C8.73172 9.43008 8.73172 9.1135 8.53646 8.91823L6.76997 7.15175L6.77118 7.15054L6.06407 6.44343L6.06286 6.44464L6.06158 6.44336Z" fill="#0C2455"/>
<path fill-rule="evenodd" clip-rule="evenodd" d="M23.5573 23.9352L22.8501 23.2281L22.8489 23.2294L21.0823 21.4629C20.887 21.2676 20.5705 21.2676 20.3752 21.4629C20.1799 21.6581 20.1799 21.9747 20.3752 22.17L22.1418 23.9365L20.3753 25.703C20.18 25.8983 20.18 26.2148 20.3753 26.4101C20.5705 26.6054 20.8871 26.6054 21.0824 26.4101L22.8489 24.6436L22.8501 24.6448L23.5572 23.9377L23.556 23.9365L23.5573 23.9352Z" fill="#0C2455"/>
<path fill-rule="evenodd" clip-rule="evenodd" d="M5.55725 7.44336V23.4434V24.4434H6.55725L22.5573 24.4434V23.4434L6.55725 23.4434L6.55725 7.44336H5.55725Z" fill="#0C2455"/>
<path fill-rule="evenodd" clip-rule="evenodd" d="M25.5573 5.44324L25.5573 23.5C25.5573 23.7761 25.3334 24 25.0572 24C24.7811 24 24.5572 23.7761 24.5572 23.5L24.5573 5.44614L6.50146 5.49866C6.22475 5.49947 6 5.27538 6 4.99867C6 4.72309 6.22297 4.49947 6.49855 4.49867L25.5573 4.44324L25.5573 5L25.5573 5.44324Z" fill="#0C2455"/>
<path d="M21.0817 10.9624L21.0752 10.9866C21.0493 11.0829 20.9003 11.4895 20.0786 12.3935L20.0786 12.3935C19.5759 12.9461 19.0824 13.3974 19.0607 13.4171L21.0817 10.9624ZM21.0817 10.9624L21.08 10.9373M21.0817 10.9624L21.08 10.9373M21.08 10.9373C21.0655 10.7272 20.8887 10.554 20.6737 10.5521L20.6689 10.5518C20.666 10.5516 20.6619 10.5515 20.6571 10.5515C20.6523 10.5515 20.6482 10.5516 20.6453 10.5518L20.6403 10.5521C20.4165 10.5541 20.233 10.7422 20.233 10.9653C20.233 11.3523 19.9191 11.6663 19.5319 11.6663C19.1447 11.6663 18.8309 11.3523 18.8309 10.9653C18.8309 9.96541 19.6427 9.15177 20.6405 9.15L20.6451 9.15031C20.6479 9.15048 20.6521 9.15066 20.6569 9.15066C20.6617 9.15066 20.6658 9.15049 20.6687 9.15032L20.6734 9.15C21.6712 9.15175 22.4831 9.9654 22.4831 10.9653C22.4831 11.4759 22.1754 12.1019 21.4227 12.988L21.2129 13.2351H21.5371H21.8298C22.217 13.2351 22.5309 13.5489 22.5309 13.9362C22.5309 14.3234 22.217 14.6372 21.8298 14.6372H19.5319C19.2422 14.6372 18.9823 14.459 18.878 14.1887L18.878 14.1886M21.08 10.9373L18.878 14.1886M18.878 14.1886C18.7737 13.9188 18.8461 13.6124 19.0601 13.4177L18.878 14.1886ZM13.7342 12.6679L13.8298 12.747L13.9254 12.6679C14.3045 12.3544 14.7901 12.166 15.3191 12.166C16.5269 12.166 17.5096 13.1487 17.5096 14.3564V18.1443C17.5096 18.5315 17.1957 18.8453 16.8085 18.8453C16.4213 18.8453 16.1074 18.5315 16.1074 18.1443V14.3564C16.1074 13.9216 15.7539 13.5681 15.3191 13.5681C14.8844 13.5681 14.5309 13.9216 14.5309 14.3564V18.1489C14.5309 18.5362 14.217 18.85 13.8298 18.85C13.4426 18.85 13.1287 18.5362 13.1287 18.1489V14.3564C13.1287 13.9216 12.7752 13.5681 12.3404 13.5681C11.9057 13.5681 11.5521 13.9216 11.5521 14.3564V18.1489C11.5521 18.5362 11.2383 18.85 10.8511 18.85C10.4638 18.85 10.15 18.5362 10.15 18.1489V12.8298C10.15 12.4426 10.4638 12.1287 10.8511 12.1287C11.0331 12.1287 11.1985 12.1987 11.3237 12.3133L11.395 12.3785L11.4839 12.3406C11.747 12.2283 12.0365 12.166 12.3404 12.166C12.8695 12.166 13.3551 12.3544 13.7342 12.6679Z" fill="#0C2455" stroke="white" stroke-width="0.3"/>
</svg>
