<svg width="24" height="24" viewBox="0 0 24 24" fill="none" xmlns="http://www.w3.org/2000/svg">
<g filter="url(#filter0_d)">
<path fill-rule="evenodd" clip-rule="evenodd" d="M13.5827 17.7557L8.17102 12.4073C7.94299 12.1822 7.94299 11.8184 8.17102 11.5927L13.5827 6.24429C13.9119 5.91857 14.4474 5.91857 14.7772 6.24429C15.1064 6.57002 15.1064 7.09866 14.7772 7.42438L10.1478 12.0003L14.7772 16.575C15.1064 16.9013 15.1064 17.43 14.7772 17.7557C14.4474 18.0814 13.9119 18.0814 13.5827 17.7557Z" fill="white"/>
<path fill-rule="evenodd" clip-rule="evenodd" d="M13.5827 17.7557L8.17102 12.4073C7.94299 12.1822 7.94299 11.8184 8.17102 11.5927L13.5827 6.24429C13.9119 5.91857 14.4474 5.91857 14.7772 6.24429C15.1064 6.57002 15.1064 7.09866 14.7772 7.42438L10.1478 12.0003L14.7772 16.575C15.1064 16.9013 15.1064 17.43 14.7772 17.7557C14.4474 18.0814 13.9119 18.0814 13.5827 17.7557Z" stroke="white" stroke-width="0.4"/>
</g>
<defs>
<filter id="filter0_d" x="5.80005" y="4.80005" width="11.4241" height="16.4" filterUnits="userSpaceOnUse" color-interpolation-filters="sRGB">
<feFlood flood-opacity="0" result="BackgroundImageFix"/>
<feColorMatrix in="SourceAlpha" type="matrix" values="0 0 0 0 0 0 0 0 0 0 0 0 0 0 0 0 0 0 127 0"/>
<feOffset dy="1"/>
<feGaussianBlur stdDeviation="1"/>
<feColorMatrix type="matrix" values="0 0 0 0 0.416476 0 0 0 0 0.484595 0 0 0 0 0.620833 0 0 0 0.5 0"/>
<feBlend mode="normal" in2="BackgroundImageFix" result="effect1_dropShadow"/>
<feBlend mode="normal" in="SourceGraphic" in2="effect1_dropShadow" result="shape"/>
</filter>
</defs>
</svg>
