<svg width="30" height="30" viewBox="0 0 30 30" fill="none" xmlns="http://www.w3.org/2000/svg">
<rect width="30" height="30" fill="white"/>
<path d="M12.5198 19C12.4398 19 12.3718 18.976 12.3158 18.928C12.2678 18.872 12.2438 18.804 12.2438 18.724V10.756C12.2438 10.676 12.2678 10.612 12.3158 10.564C12.3718 10.508 12.4398 10.48 12.5198 10.48H13.1198C13.1998 10.48 13.2638 10.508 13.3118 10.564C13.3678 10.612 13.3958 10.676 13.3958 10.756V13.552C13.6278 13.256 13.8998 13.032 14.2118 12.88C14.5238 12.72 14.9118 12.64 15.3758 12.64C16.1438 12.64 16.7398 12.888 17.1638 13.384C17.5958 13.872 17.8118 14.524 17.8118 15.34V18.724C17.8118 18.804 17.7838 18.872 17.7278 18.928C17.6798 18.976 17.6158 19 17.5358 19H16.9358C16.8558 19 16.7878 18.976 16.7318 18.928C16.6838 18.872 16.6598 18.804 16.6598 18.724V15.4C16.6598 14.832 16.5198 14.392 16.2398 14.08C15.9678 13.768 15.5718 13.612 15.0518 13.612C14.5478 13.612 14.1438 13.772 13.8398 14.092C13.5438 14.404 13.3958 14.84 13.3958 15.4V18.724C13.3958 18.804 13.3678 18.872 13.3118 18.928C13.2638 18.976 13.1998 19 13.1198 19H12.5198Z" fill="#0C2455"/>
<path fill-rule="evenodd" clip-rule="evenodd" d="M5.61883 6L4.91173 6.70711L4.91301 6.70839L3.14645 8.47495C2.95118 8.67021 2.95118 8.98679 3.14645 9.18206C3.34171 9.37732 3.65829 9.37732 3.85355 9.18206L5.62011 7.4155L7.3866 9.18198C7.58186 9.37724 7.89844 9.37724 8.09371 9.18198C8.28897 8.98672 8.28897 8.67014 8.09371 8.47487L6.32722 6.70839L6.32843 6.70718L5.62132 6.00008L5.62011 6.00128L5.61883 6Z" fill="#0C2455"/>
<path d="M6.1145 23.5C6.1145 23.7761 5.89064 24 5.6145 24C5.33836 24 5.1145 23.7761 5.1145 23.5L5.1145 7L6.1145 7L6.1145 23.5Z" fill="#0C2455"/>
<path fill-rule="evenodd" clip-rule="evenodd" d="M24.6188 24L23.9117 23.2929L23.913 23.2916L22.1464 21.5251C21.9512 21.3298 21.9512 21.0132 22.1464 20.8179C22.3417 20.6227 22.6583 20.6227 22.8536 20.8179L24.6201 22.5845L26.3866 20.818C26.5819 20.6228 26.8984 20.6228 27.0937 20.818C27.289 21.0133 27.289 21.3299 27.0937 21.5251L25.3272 23.2916L25.3284 23.2928L24.6213 23.9999L24.6201 23.9987L24.6188 24Z" fill="#0C2455"/>
<path d="M25.1145 6.5C25.1145 6.22386 24.8906 6 24.6145 6C24.3384 6 24.1145 6.22386 24.1145 6.5L24.1145 23L25.1145 23L25.1145 6.5Z" fill="#0C2455"/>
<path fill-rule="evenodd" clip-rule="evenodd" d="M25 25.4744C25 25.2126 24.7874 25.0006 24.5256 25.0013L5.47181 25.0526C5.21103 25.0533 5 25.2649 5 25.5257C5 25.7875 5.21258 25.9995 5.47436 25.9988L24.5282 25.9475C24.789 25.9468 25 25.7352 25 25.4744ZM25 4.47429C25 4.21251 24.7874 4.0005 24.5256 4.0012L5.47182 4.05248C5.21103 4.05318 5 4.26478 5 4.52556C5 4.78734 5.21259 4.99935 5.47436 4.99865L24.5282 4.94737C24.789 4.94667 25 4.73507 25 4.47429Z" fill="#0C2455"/>
</svg>
