<svg width="24" height="24" viewBox="0 0 24 24" fill="none" xmlns="http://www.w3.org/2000/svg">
<rect width="24" height="24" rx="12" fill="white"/>
<path d="M6.26374 12.2033C6.58372 11.8979 7.08968 11.9061 7.39958 12.2218L9.39976 14.259C9.58009 14.4426 9.8756 14.444 10.0576 14.262L16.5958 7.72385C16.9057 7.41388 17.4083 7.41388 17.7183 7.72384C18.0282 8.03381 18.0282 8.53637 17.7183 8.84634L10.1693 16.3953C9.9251 16.6395 9.52921 16.6395 9.28503 16.3953L6.25029 13.3606C5.92916 13.0394 5.93523 12.5169 6.26374 12.2033Z" fill="#4364DA"/>
<path d="M11.9733 0C18.6013 0 24 5.34521 24 11.9733C24 18.6013 18.6013 24 11.9733 24C5.34521 24 0 18.6013 0 11.9733C0 5.34521 5.34521 0 11.9733 0ZM11.9733 1.3363C6.09354 1.3363 1.3363 6.09354 1.3363 11.9733C1.3363 17.853 6.09354 22.6102 11.9733 22.6102C17.853 22.6102 22.6102 17.853 22.6102 11.9733C22.6102 6.09354 17.853 1.3363 11.9733 1.3363Z" fill="#4364DA"/>
</svg>
