<svg width="40" height="40" viewBox="0 0 40 40" fill="none" xmlns="http://www.w3.org/2000/svg">
<path d="M31.389 12.6978H32.1327C32.3329 12.6978 32.5249 12.622 32.6665 12.4872C32.808 12.3524 32.8875 12.1695 32.8875 11.9789C32.8875 11.7882 32.808 11.6054 32.6665 11.4706C32.5249 11.3357 32.3329 11.26 32.1327 11.26H26.1016V12.6978H31.389Z" fill="#0C2455" stroke="white" stroke-width="0.3"/>
<path d="M35.0667 22.4071H32.899V16.0718C32.899 15.8915 32.8237 15.7185 32.6899 15.591C32.556 15.4635 32.3744 15.3919 32.185 15.3919H6.97096C6.60194 15.3963 6.24518 15.2658 5.97406 15.0274C5.70293 14.7889 5.53807 14.4606 5.51337 14.1099C5.5038 13.9275 5.53324 13.745 5.59991 13.5737C5.66657 13.4024 5.76907 13.2458 5.90119 13.1134C6.03331 12.9809 6.1923 12.8754 6.36852 12.8032C6.54473 12.731 6.73451 12.6937 6.92634 12.6934H12.5038V11.2557H6.92634C6.54306 11.2538 6.16317 11.324 5.80846 11.4623C5.45375 11.6006 5.1312 11.8042 4.85932 12.0615C4.58743 12.3188 4.37157 12.6247 4.22411 12.9616C4.07664 13.2986 4.00048 13.6599 4 14.0249C4 14.0568 4 14.0816 4 14.1135V31.5047C4 32.4317 4.38666 33.3207 5.07492 33.9762C5.41571 34.3008 5.82029 34.5582 6.26555 34.7339C6.71082 34.9095 7.18805 34.9999 7.67 34.9999H32.1441C32.3414 34.9999 32.5305 34.9253 32.67 34.7925C32.8095 34.6597 32.8878 34.4795 32.8878 34.2917V27.9846H35.0667C35.2163 27.9837 35.3595 27.9267 35.4653 27.826C35.5711 27.7252 35.631 27.5888 35.6319 27.4464V22.949C35.6324 22.878 35.6182 22.8076 35.59 22.7419C35.5618 22.6762 35.5203 22.6164 35.4677 22.566C35.4152 22.5157 35.3527 22.4757 35.2839 22.4484C35.2151 22.4212 35.1413 22.4071 35.0667 22.4071ZM31.3856 33.5586H7.51011C6.98054 33.5586 6.47266 33.3583 6.0982 33.0016C5.72374 32.645 5.51337 32.1613 5.51337 31.657V16.4295C5.94333 16.6715 6.4308 16.8055 6.93005 16.819H31.3893V22.4071H27.2582C26.4959 22.4071 25.7648 22.6955 25.2258 23.2089C24.6868 23.7223 24.384 24.4185 24.384 25.1445C24.384 25.8959 24.6974 26.6165 25.2552 27.1478C25.8131 27.6791 26.5697 27.9776 27.3586 27.9776H31.3893L31.3856 33.5586ZM34.126 26.5433H27.3289C26.9531 26.5433 26.5928 26.4012 26.3271 26.1482C26.0614 25.8951 25.9122 25.552 25.9122 25.1941C25.9122 24.8363 26.0614 24.4931 26.3271 24.2401C26.5928 23.987 26.9531 23.8449 27.3289 23.8449H34.1297L34.126 26.5433Z" fill="#0C2455" stroke="white" stroke-width="0.3"/>
<path d="M18.849 16.4299L18.8506 16.4298C19.3474 16.4212 19.8722 16.2989 20.4243 16.0659C20.6972 16.0819 20.8579 16.0848 20.9963 16.0022C21.0659 15.9607 21.1247 15.9009 21.189 15.8277C21.2184 15.7943 21.2504 15.7562 21.2859 15.714L21.2974 15.7003C21.3354 15.6551 21.378 15.6047 21.4273 15.548C22.1866 15.0544 22.7005 14.4863 22.9565 13.8409L22.9568 13.84C23.2115 13.1794 23.1594 12.5136 22.8067 11.8503C22.5762 11.4168 22.2895 11.1017 21.9432 10.9151C21.5956 10.7223 21.1805 10.6366 20.7025 10.6524C20.2242 10.6606 19.6169 10.7497 18.8827 10.9173C18.2516 11.0509 17.765 11.1327 17.4212 11.1639C17.0771 11.1873 16.8013 11.1548 16.5889 11.0727C16.3912 10.9897 16.2276 10.8336 16.1004 10.5945C15.9104 10.2371 15.9062 9.90485 16.0782 9.58549C16.255 9.25732 16.5871 8.95738 17.0889 8.69055C17.5422 8.44952 17.9656 8.3555 18.3618 8.39943L18.3618 8.39944L18.3634 8.3996C18.7565 8.4365 19.0432 8.59058 19.2368 8.85578L19.2362 8.85617L19.2441 8.86468C19.313 8.9392 19.3951 8.98897 19.4905 9.00263C19.585 9.01618 19.68 8.99247 19.772 8.94351L20.3703 8.62535C20.4625 8.57636 20.5312 8.50394 20.5536 8.40431C20.5805 8.31291 20.5733 8.22214 20.5287 8.13828L20.5288 8.13821L20.5261 8.1337C20.3488 7.83884 20.0855 7.59379 19.7411 7.397C19.3997 7.19364 18.9922 7.08012 18.5218 7.05273C18.0788 7.0227 17.6099 7.09835 17.1162 7.27629L16.7371 6.56331C16.6859 6.46704 16.6071 6.40128 16.503 6.37582C16.4025 6.33874 16.3004 6.34921 16.2042 6.4004L15.7752 6.62851C15.6768 6.68084 15.6091 6.76229 15.5766 6.86864C15.5464 6.96766 15.5622 7.06728 15.6123 7.16146L15.9845 7.86139C15.3233 8.32216 14.8835 8.85874 14.6765 9.47339C14.4578 10.103 14.503 10.7122 14.8123 11.2939C15.0427 11.7272 15.327 12.0471 15.6683 12.2452C16.0072 12.4419 16.4086 12.5403 16.8687 12.5444C17.325 12.5486 17.8934 12.4758 18.5719 12.3285C19.2688 12.1892 19.7967 12.1004 20.157 12.0612C20.5142 12.0224 20.7982 12.0424 21.0141 12.1142L21.0141 12.1143L21.0164 12.115C21.2294 12.1801 21.399 12.325 21.5246 12.5611C21.7219 12.9321 21.7286 13.2942 21.5478 13.6579C21.3612 14.0179 20.9696 14.3648 20.3531 14.6927C19.7834 14.9956 19.2973 15.1114 18.8897 15.0575C18.4726 15.0023 18.1568 14.8444 17.9324 14.5899L17.9328 14.5895L17.9252 14.5825C17.8494 14.5126 17.7663 14.464 17.6758 14.4469C17.5836 14.4296 17.4933 14.4467 17.4082 14.492L16.8212 14.8042C16.7276 14.8539 16.6654 14.935 16.6339 15.0383C16.6055 15.1311 16.6122 15.2234 16.6575 15.3085L16.6574 15.3086L16.6597 15.3124C16.8644 15.6593 17.1533 15.9354 17.5237 16.1405L17.5237 16.1406L17.5263 16.1419C17.9025 16.3361 18.3446 16.4308 18.849 16.4299Z" fill="#0C2455" stroke="#0C2455" stroke-width="0.2"/>
</svg>
