<svg width="30" height="30" viewBox="0 0 30 30" fill="none" xmlns="http://www.w3.org/2000/svg">
<rect width="30" height="30" fill="white"/>
<path d="M24.6667 5H19.3333C19.1493 5 19 5.14925 19 5.33333V9.66667H14.6667C14.4826 9.66667 14.3333 9.81592 14.3333 10V14.3333H10C9.81592 14.3333 9.66667 14.4826 9.66667 14.6667V19H5.33333C5.14925 19 5 19.1493 5 19.3333V24.6667C5 24.8507 5.14925 25 5.33333 25H24.6667C24.8507 25 25 24.8507 25 24.6667V5.33333C25 5.14925 24.8507 5 24.6667 5ZM24.3333 24.3333H5.66667V19.6667H10C10.1841 19.6667 10.3333 19.5174 10.3333 19.3333V15H14.6667C14.8507 15 15 14.8507 15 14.6667V10.3333H19.3333C19.5174 10.3333 19.6667 10.1841 19.6667 10V5.66667H24.3333V24.3333Z" fill="#0C2455" stroke="#0C2455" stroke-width="0.4"/>
<mask id="path-2-inside-1" fill="white">
<path fill-rule="evenodd" clip-rule="evenodd" d="M20.6372 15.6343H21.6372L21.6372 15.6361H21.6389V16.6361H21.6372L21.6372 19.1343C21.6372 19.4104 21.4133 19.6343 21.1372 19.6343C20.861 19.6343 20.6372 19.4104 20.6372 19.1343L20.6372 17.3527L16.92 21.0699C16.7248 21.2651 16.4082 21.2651 16.2129 21.0699C16.0177 20.8746 16.0177 20.558 16.2129 20.3628L19.9396 16.6361L18.1389 16.6361C17.8627 16.6361 17.6389 16.4123 17.6389 16.1361C17.6389 15.86 17.8627 15.6361 18.1389 15.6361L20.6372 15.6361L20.6372 15.6343Z"/>
</mask>
<path fill-rule="evenodd" clip-rule="evenodd" d="M20.6372 15.6343H21.6372L21.6372 15.6361H21.6389V16.6361H21.6372L21.6372 19.1343C21.6372 19.4104 21.4133 19.6343 21.1372 19.6343C20.861 19.6343 20.6372 19.4104 20.6372 19.1343L20.6372 17.3527L16.92 21.0699C16.7248 21.2651 16.4082 21.2651 16.2129 21.0699C16.0177 20.8746 16.0177 20.558 16.2129 20.3628L19.9396 16.6361L18.1389 16.6361C17.8627 16.6361 17.6389 16.4123 17.6389 16.1361C17.6389 15.86 17.8627 15.6361 18.1389 15.6361L20.6372 15.6361L20.6372 15.6343Z" fill="#0C2455"/>
<path d="M21.6372 15.6343L22.6372 15.6344L22.6372 14.6343L21.6372 14.6343L21.6372 15.6343ZM20.6372 15.6343L20.6372 14.6343L19.6371 14.6343L19.6372 15.6344L20.6372 15.6343ZM21.6372 15.6361L20.6372 15.636L20.6371 16.6361L21.6372 16.6361L21.6372 15.6361ZM21.6389 15.6361L22.6389 15.6361L22.6389 14.6361L21.6389 14.6361L21.6389 15.6361ZM21.6389 16.6361L21.6389 17.6361H22.6389V16.6361L21.6389 16.6361ZM21.6372 16.6361L21.6372 15.6361L20.6372 15.6361L20.6372 16.6361L21.6372 16.6361ZM21.6372 19.1343H20.6372H21.6372ZM21.1372 19.6343L21.1372 20.6343L21.1372 20.6343L21.1372 19.6343ZM20.6372 19.1343L19.6372 19.1343L19.6372 19.1343H20.6372ZM20.6372 17.3527L21.6372 17.3527L21.6372 14.9385L19.93 16.6456L20.6372 17.3527ZM16.92 21.0699L16.2129 20.3628L16.2129 20.3628L16.92 21.0699ZM16.2129 20.3628L15.5058 19.6556L15.5058 19.6556L16.2129 20.3628ZM19.9396 16.6361L20.6467 17.3432L22.3538 15.6361L19.9396 15.6361L19.9396 16.6361ZM18.1389 16.6361L18.1389 17.6361H18.1389L18.1389 16.6361ZM17.6389 16.1361L18.6389 16.1361L18.6389 16.1361L17.6389 16.1361ZM18.1389 15.6361L18.1389 16.6361L18.1389 16.6361L18.1389 15.6361ZM20.6372 15.6361L20.6372 16.6361H21.6372L21.6372 15.636L20.6372 15.6361ZM21.6372 14.6343L20.6372 14.6343L20.6372 16.6343H21.6372V14.6343ZM22.6372 15.6362L22.6372 15.6344L20.6372 15.6342L20.6372 15.636L22.6372 15.6362ZM21.6389 14.6361L21.6372 14.6361L21.6372 16.6361H21.6389V14.6361ZM22.6389 16.6361L22.6389 15.6361H20.6389V16.6361L22.6389 16.6361ZM21.6372 17.6361H21.6389L21.6389 15.6361H21.6372L21.6372 17.6361ZM22.6372 19.1343V16.6361L20.6372 16.6361L20.6372 19.1343L22.6372 19.1343ZM21.1372 20.6343C21.9656 20.6343 22.6372 19.9627 22.6372 19.1343H20.6372C20.6372 18.8582 20.861 18.6343 21.1372 18.6343L21.1372 20.6343ZM19.6372 19.1343C19.6372 19.9627 20.3087 20.6343 21.1372 20.6343L21.1372 18.6343C21.4133 18.6343 21.6372 18.8582 21.6372 19.1343H19.6372ZM19.6372 17.3527L19.6372 19.1343L21.6372 19.1343L21.6372 17.3527L19.6372 17.3527ZM19.93 16.6456L16.2129 20.3628L17.6271 21.777L21.3443 18.0598L19.93 16.6456ZM16.2129 20.3628C16.4082 20.1675 16.7248 20.1675 16.92 20.3628L15.5058 21.777C16.0916 22.3628 17.0414 22.3628 17.6271 21.777L16.2129 20.3628ZM16.92 20.3628C17.1153 20.558 17.1153 20.8746 16.92 21.0699L15.5058 19.6556C14.92 20.2414 14.92 21.1912 15.5058 21.777L16.92 20.3628ZM16.92 21.0699L20.6467 17.3432L19.2325 15.929L15.5058 19.6556L16.92 21.0699ZM18.1389 17.6361L19.9396 17.6361L19.9396 15.6361L18.1389 15.6361L18.1389 17.6361ZM16.6389 16.1361C16.6389 16.9645 17.3104 17.6361 18.1389 17.6361L18.1389 15.6361C18.415 15.6361 18.6389 15.86 18.6389 16.1361L16.6389 16.1361ZM18.1389 14.6361C17.3104 14.6361 16.6389 15.3077 16.6389 16.1361L18.6389 16.1361C18.6389 16.4123 18.415 16.6361 18.1389 16.6361L18.1389 14.6361ZM20.6372 14.6361L18.1389 14.6361L18.1389 16.6361L20.6372 16.6361L20.6372 14.6361ZM19.6372 15.6344L19.6372 15.6362L21.6372 15.636L21.6372 15.6342L19.6372 15.6344Z" fill="#0C2455" mask="url(#path-2-inside-1)"/>
<mask id="path-4-inside-2" fill="white">
<path fill-rule="evenodd" clip-rule="evenodd" d="M6.85357 11.2834L5.85357 11.2834V11.2816H5.85186L5.85186 10.2816H5.85357V7.78342C5.85357 7.50728 6.07743 7.28342 6.35357 7.28342C6.62971 7.28342 6.85357 7.50728 6.85357 7.78342L6.85357 9.56498L10.5707 5.84786C10.7659 5.6526 11.0825 5.6526 11.2778 5.84786C11.4731 6.04312 11.4731 6.35971 11.2778 6.55497L7.55115 10.2816H9.35186C9.628 10.2816 9.85186 10.5055 9.85186 10.7816C9.85186 11.0578 9.628 11.2816 9.35186 11.2816L6.85357 11.2816L6.85357 11.2834Z"/>
</mask>
<path fill-rule="evenodd" clip-rule="evenodd" d="M6.85357 11.2834L5.85357 11.2834V11.2816H5.85186L5.85186 10.2816H5.85357V7.78342C5.85357 7.50728 6.07743 7.28342 6.35357 7.28342C6.62971 7.28342 6.85357 7.50728 6.85357 7.78342L6.85357 9.56498L10.5707 5.84786C10.7659 5.6526 11.0825 5.6526 11.2778 5.84786C11.4731 6.04312 11.4731 6.35971 11.2778 6.55497L7.55115 10.2816H9.35186C9.628 10.2816 9.85186 10.5055 9.85186 10.7816C9.85186 11.0578 9.628 11.2816 9.35186 11.2816L6.85357 11.2816L6.85357 11.2834Z" fill="#0C2455"/>
<path d="M5.85357 11.2834L4.85357 11.2834V12.2834L5.85357 12.2834L5.85357 11.2834ZM6.85357 11.2834L6.85357 12.2834L7.85347 12.2834L7.85357 11.2835L6.85357 11.2834ZM5.85357 11.2816L6.85357 11.2816L6.85357 10.2816L5.85357 10.2816L5.85357 11.2816ZM5.85186 11.2816L4.85186 11.2816V12.2816L5.85186 12.2816L5.85186 11.2816ZM5.85186 10.2816V9.28161L4.85186 9.28161V10.2816L5.85186 10.2816ZM5.85357 10.2816L5.85357 11.2816L6.85357 11.2816L6.85357 10.2816L5.85357 10.2816ZM6.85357 7.78342H7.85357H6.85357ZM6.85357 9.56498L5.85357 9.56498L5.85357 11.9792L7.56067 10.2721L6.85357 9.56498ZM10.5707 5.84786L11.2778 6.55497L11.2778 6.55497L10.5707 5.84786ZM11.2778 6.55497L11.9849 7.26208L11.9849 7.26208L11.2778 6.55497ZM7.55115 10.2816L6.84405 9.5745L5.13694 11.2816L7.55115 11.2816L7.55115 10.2816ZM9.35186 10.2816L9.35186 9.28161H9.35186V10.2816ZM9.85186 10.7816L8.85186 10.7816L9.85186 10.7816ZM9.35186 11.2816L9.35186 10.2816L9.35186 10.2816L9.35186 11.2816ZM6.85357 11.2816L6.85357 10.2816L5.85366 10.2816L5.85357 11.2815L6.85357 11.2816ZM5.85357 12.2834L6.85357 12.2834L6.85357 10.2834L5.85357 10.2834L5.85357 12.2834ZM4.85357 11.2816L4.85357 11.2834L6.85357 11.2834V11.2816H4.85357ZM5.85186 12.2816H5.85357V10.2816H5.85186V12.2816ZM4.85186 10.2816L4.85186 11.2816L6.85186 11.2816L6.85186 10.2816L4.85186 10.2816ZM5.85357 9.28161H5.85186L5.85186 11.2816H5.85357L5.85357 9.28161ZM4.85357 7.78342V10.2816L6.85357 10.2816L6.85357 7.78342H4.85357ZM6.35357 6.28342C5.52514 6.28342 4.85357 6.95499 4.85357 7.78342H6.85357C6.85357 8.05956 6.62971 8.28342 6.35357 8.28342L6.35357 6.28342ZM7.85357 7.78342C7.85357 6.95499 7.18199 6.28342 6.35357 6.28342L6.35357 8.28342C6.07743 8.28342 5.85357 8.05956 5.85357 7.78342H7.85357ZM7.85357 9.56498L7.85357 7.78342L5.85357 7.78342V9.56498L7.85357 9.56498ZM7.56067 10.2721L11.2778 6.55497L9.86358 5.14076L6.14646 8.85787L7.56067 10.2721ZM11.2778 6.55497C11.0825 6.75023 10.766 6.75023 10.5707 6.55497L11.9849 5.14076C11.3991 4.55497 10.4494 4.55497 9.86358 5.14076L11.2778 6.55497ZM10.5707 6.55497C10.3754 6.35971 10.3754 6.04312 10.5707 5.84786L11.9849 7.26208C12.5707 6.67629 12.5707 5.72654 11.9849 5.14076L10.5707 6.55497ZM10.5707 5.84786L6.84405 9.5745L8.25826 10.9887L11.9849 7.26208L10.5707 5.84786ZM9.35186 9.28161L7.55115 9.28161L7.55115 11.2816L9.35186 11.2816L9.35186 9.28161ZM10.8519 10.7816C10.8519 9.95318 10.1803 9.28161 9.35186 9.28161L9.35186 11.2816C9.07572 11.2816 8.85186 11.0578 8.85186 10.7816L10.8519 10.7816ZM9.35186 12.2816C10.1803 12.2816 10.8519 11.61 10.8519 10.7816L8.85186 10.7816C8.85186 10.5055 9.07572 10.2816 9.35186 10.2816L9.35186 12.2816ZM6.85357 12.2816L9.35186 12.2816L9.35186 10.2816L6.85357 10.2816L6.85357 12.2816ZM7.85357 11.2835L7.85357 11.2817L5.85357 11.2815L5.85357 11.2833L7.85357 11.2835Z" fill="#0C2455" mask="url(#path-4-inside-2)"/>
</svg>
