<svg width="30" height="30" viewBox="0 0 30 30" fill="none" xmlns="http://www.w3.org/2000/svg">
<rect width="30" height="30" fill="white"/>
<rect x="27.5" y="9.5" width="2" height="22" rx="1" transform="rotate(90 27.5 9.5)" stroke="#0C2455"/>
<rect x="27.5" y="18.5" width="2" height="22" rx="1" transform="rotate(90 27.5 18.5)" stroke="#0C2455"/>
<rect x="7" y="8" width="16.5641" height="14" fill="white"/>
<rect x="25" y="8" width="1" height="5" rx="0.5" fill="#0C2455"/>
<rect x="25" y="17" width="1" height="5" rx="0.5" fill="#0C2455"/>
<path fill-rule="evenodd" clip-rule="evenodd" d="M9.48247 25.9999C9.34437 25.9999 9.2062 25.9594 9.09676 25.8788L7.19358 24.4726C7.07336 24.3837 7.00476 24.2572 7.00476 24.1249L7.00484 5.87491C7.00484 5.7423 7.07336 5.61559 7.19373 5.52725L9.09691 4.121C9.21238 4.03655 9.35947 3.99547 9.50476 4.0004C9.65019 3.99551 9.79733 4.03604 9.91261 4.121L11.8158 5.52725C11.9361 5.61612 12.0047 5.74258 12.0047 5.87491L12.0048 24.1249C12.0048 24.2572 11.9362 24.3837 11.8159 24.4726L9.91276 25.8788C9.79134 25.9682 9.64197 25.9999 9.48247 25.9999ZM9.45539 24.872L8.15388 23.9169V6.08292L9.45389 5.12198C9.46918 5.08774 9.54039 5.08785 9.55563 5.12198L10.8556 6.08292V23.9169L9.5269 24.8988V24.894C9.52017 24.8964 9.51262 24.8979 9.50476 24.8979C9.49691 24.8979 9.48935 24.8964 9.48262 24.894V24.8988L9.45539 24.872Z" fill="#0C2455"/>
<path fill-rule="evenodd" clip-rule="evenodd" d="M13.3497 25.9999C13.2116 25.9999 13.0734 25.9594 12.9639 25.8788L11.0608 24.4726C10.9405 24.3837 10.8719 24.2572 10.8719 24.1249L10.872 5.87491C10.872 5.7423 10.9406 5.61559 11.0609 5.52725L12.9641 4.121C13.0796 4.03655 13.2267 3.99547 13.3719 4.0004C13.5174 3.99551 13.6645 4.03604 13.7798 4.121L15.683 5.52725C15.8033 5.61612 15.8719 5.74258 15.8719 5.87491L15.8719 24.1249C15.8719 24.2572 15.8033 24.3837 15.6831 24.4726L13.7799 25.8788C13.6585 25.9682 13.5092 25.9999 13.3497 25.9999ZM13.3226 24.872L12.0211 23.9169V6.08292L13.3211 5.12198C13.3364 5.08774 13.4076 5.08785 13.4228 5.12198L14.7228 6.08292V23.9169L13.3941 24.8988V24.894C13.3874 24.8964 13.3798 24.8979 13.3719 24.8979C13.3641 24.8979 13.3565 24.8964 13.3498 24.894V24.8988L13.3226 24.872Z" fill="#0C2455"/>
<path fill-rule="evenodd" clip-rule="evenodd" d="M17.1727 26.2211C17.0346 26.2211 16.8964 26.1806 16.7869 26.1L14.8838 24.6938C14.7635 24.6049 14.6949 24.4784 14.6949 24.3461L14.695 6.0961C14.695 5.96349 14.7635 5.83678 14.8839 5.74844L16.7871 4.34219C16.9026 4.25774 17.0497 4.21666 17.1949 4.22159C17.3404 4.2167 17.4875 4.25723 17.6028 4.34219L19.506 5.74844C19.6263 5.83731 19.6949 5.96378 19.6949 6.0961L19.6949 24.3461C19.6949 24.4784 19.6263 24.6049 19.5061 24.6938L17.6029 26.1C17.4815 26.1894 17.3322 26.2211 17.1727 26.2211ZM17.1456 25.0932L15.8441 24.1381V6.30411L17.1441 5.34317C17.1594 5.30894 17.2306 5.30904 17.2458 5.34317L18.5458 6.30411V24.1381L17.2171 25.12V25.1151C17.2104 25.1176 17.2028 25.119 17.1949 25.119C17.1871 25.119 17.1795 25.1176 17.1728 25.1151V25.12L17.1456 25.0932Z" fill="#0C2455"/>
<path fill-rule="evenodd" clip-rule="evenodd" d="M21.0418 26.2211C20.9037 26.2211 20.7655 26.1806 20.6561 26.1L18.7529 24.6938C18.6327 24.6049 18.5641 24.4784 18.5641 24.3461L18.5642 6.0961C18.5642 5.96349 18.6327 5.83678 18.7531 5.74844L20.6562 4.34219C20.7717 4.25774 20.9188 4.21666 21.0641 4.22159C21.2095 4.2167 21.3567 4.25723 21.4719 4.34219L23.3751 5.74844C23.4954 5.83731 23.564 5.96378 23.564 6.0961L23.5641 24.3461C23.5641 24.4784 23.4955 24.6049 23.3753 24.6938L21.4721 26.1C21.3507 26.1894 21.2013 26.2211 21.0418 26.2211ZM21.0147 25.0932L19.7132 24.1381V6.30411L21.0132 5.34317C21.0285 5.30894 21.0997 5.30904 21.115 5.34317L22.415 6.30411V24.1381L21.0862 25.12V25.1151C21.0795 25.1176 21.0719 25.119 21.0641 25.119C21.0562 25.119 21.0487 25.1176 21.0419 25.1151V25.12L21.0147 25.0932Z" fill="#0C2455"/>
</svg>
