<svg width="40" height="40" viewBox="0 0 40 40" fill="none" xmlns="http://www.w3.org/2000/svg">
<path d="M11.5967 14.698C11.5967 14.97 11.8172 15.1906 12.0892 15.1906C12.3613 15.1906 12.5818 14.97 12.5818 14.698C12.5818 14.426 12.3613 14.2054 12.0892 14.2054C11.8172 14.2054 11.5967 14.426 11.5967 14.698Z" fill="#0C2455" stroke="#0C2455" stroke-width="0.6"/>
<path d="M28.5252 14.4838H14.21V14.9124H28.5252V14.4838Z" fill="#0C2455" stroke="#0C2455" stroke-width="0.6"/>
<path d="M11.5967 18.2328C11.5967 18.5048 11.8172 18.7254 12.0892 18.7254C12.3613 18.7254 12.5818 18.5048 12.5818 18.2328C12.5818 17.9608 12.3613 17.7402 12.0892 17.7402C11.8172 17.7402 11.5967 17.9608 11.5967 18.2328Z" fill="#0C2455" stroke="#0C2455" stroke-width="0.6"/>
<path d="M28.5252 18.0183H14.21V18.4469H28.5252V18.0183Z" fill="#0C2455" stroke="#0C2455" stroke-width="0.6"/>
<path d="M11.5967 21.7672C11.5967 22.0393 11.8172 22.2598 12.0892 22.2598C12.3613 22.2598 12.5818 22.0393 12.5818 21.7672C12.5818 21.4952 12.3613 21.2747 12.0892 21.2747C11.8172 21.2747 11.5967 21.4952 11.5967 21.7672Z" fill="#0C2455" stroke="#0C2455" stroke-width="0.6"/>
<path d="M28.5252 21.5532H14.21V21.9818H28.5252V21.5532Z" fill="#0C2455" stroke="#0C2455" stroke-width="0.6"/>
<path d="M11.5967 25.302C11.5967 25.574 11.8172 25.7946 12.0892 25.7946C12.3613 25.7946 12.5818 25.574 12.5818 25.302C12.5818 25.03 12.3613 24.8094 12.0892 24.8094C11.8172 24.8094 11.5967 25.03 11.5967 25.302Z" fill="#0C2455" stroke="#0C2455" stroke-width="0.6"/>
<path d="M28.5252 25.0876H14.21V25.5163H28.5252V25.0876Z" fill="#0C2455" stroke="#0C2455" stroke-width="0.6"/>
<path d="M30.3983 8.96225L27.1598 5.72375L26.436 5H25.9249H10C9.44771 5 9 5.44772 9 6V34C9 34.5523 9.44772 35 10 35H30.122C30.6743 35 31.122 34.5523 31.122 34V10.1975V9.686L30.3983 8.96225ZM26.6475 6.23525L29.8868 9.47412H26.6475V6.23525ZM30.3983 33.2763C30.3983 33.8285 29.9505 34.2762 29.3983 34.2762H10.7237C10.1715 34.2762 9.72375 33.8285 9.72375 33.2762V6.72375C9.72375 6.17147 10.1715 5.72375 10.7238 5.72375H25.9249V10.1975H30.3986L30.3983 33.2763Z" fill="#0C2455" stroke="#0C2455" stroke-width="0.6"/>
</svg>
