<svg width="30" height="30" viewBox="0 0 30 30" fill="none" xmlns="http://www.w3.org/2000/svg">
<rect width="30" height="30" fill="white"/>
<path d="M13.2278 19.4147H14.6375L14.4031 22.5502L14.4027 22.5502V22.5614C14.4027 22.6376 14.4269 22.7173 14.4655 22.7834C14.5034 22.8484 14.5668 22.9194 14.6593 22.9502C14.8077 22.9997 15.0043 22.9542 15.108 22.7999L17.8803 18.7955L17.8925 18.7779L17.8993 18.7576C17.9374 18.6432 17.946 18.5063 17.8911 18.3966C17.8596 18.3336 17.8051 18.2837 17.7494 18.2503C17.6923 18.216 17.6197 18.1904 17.5413 18.1904H16.1316L16.366 15.0549L16.3664 15.0549V15.0437C16.3664 14.9675 16.3422 14.8878 16.3036 14.8218C16.2657 14.7567 16.2023 14.6857 16.1098 14.6549C15.9614 14.6054 15.7649 14.6509 15.6611 14.8052L12.8954 18.8001C12.7806 18.9257 12.8026 19.0925 12.8827 19.2176C12.9148 19.2763 12.9667 19.323 13.0197 19.3548C13.0768 19.3891 13.1494 19.4147 13.2278 19.4147ZM15.7543 18.9526H16.8231L15.2706 21.1872L15.4416 19.0611L15.4421 19.0611V19.049C15.4421 18.951 15.3967 18.8607 15.3694 18.8064C15.3677 18.8032 15.3662 18.8001 15.3647 18.7971C15.3266 18.7209 15.2637 18.6813 15.1976 18.6647C15.1482 18.6524 15.0928 18.6525 15.0534 18.6525C15.0508 18.6526 15.0482 18.6526 15.0456 18.6526H13.9768L15.5294 16.4179L15.3583 18.544L15.3578 18.544V18.5561C15.3578 18.6542 15.4032 18.7444 15.4306 18.7987C15.4322 18.8019 15.4338 18.805 15.4353 18.808C15.4733 18.8842 15.5363 18.9239 15.6024 18.9404C15.6517 18.9527 15.7071 18.9526 15.7465 18.9526C15.7492 18.9526 15.7518 18.9526 15.7543 18.9526Z" fill="#0C2455" stroke="#0C2455" stroke-width="0.3"/>
<path d="M19.6524 16.4364L19.6521 16.4357C19.093 15.069 18.3795 13.7978 17.607 12.5617L17.607 12.5616L17.6057 12.5597L17.6049 12.5585C17.2665 12.0355 16.9262 11.5096 16.5548 10.9833L16.5548 10.9833L16.5522 10.9798C16.4652 10.8639 16.3833 10.7445 16.2985 10.621C16.2493 10.5493 16.1991 10.4763 16.1465 10.4018C16.0081 10.2056 15.858 10.0074 15.6823 9.83052C15.5292 9.63857 15.2358 9.6397 15.0843 9.83391C14.6558 10.311 14.2797 10.8806 13.9239 11.4195C13.8133 11.5871 13.7046 11.7517 13.597 11.9096L13.5969 11.9096L13.5955 11.9118C12.9476 12.8991 12.3275 13.8909 11.7997 14.9465C10.8457 16.8545 9.92235 19.0926 10.6199 21.3126C11.127 22.9604 12.4582 24.3259 14.1447 24.7714L14.1449 24.7715C15.9433 25.2448 18.2314 24.747 19.3866 23.1761C20.8842 21.2309 20.4894 18.5134 19.6524 16.4364ZM18.3965 23.1898L18.3965 23.1898L18.394 23.192C17.4828 24.0445 15.9946 24.3191 14.7629 24.1088L14.7616 24.1086C13.6638 23.9306 12.7114 23.3072 12.0548 22.4118C11.1622 21.1917 11.0391 19.8283 11.307 18.4624C11.5757 17.0923 12.2361 15.7306 12.897 14.5316C13.6314 13.2096 14.4787 11.9153 15.385 10.7028C16.5027 12.1904 17.5031 13.7626 18.3315 15.4196C19.2519 17.2603 19.9098 19.1925 19.4593 21.2045L19.4593 21.2045L19.4586 21.2078C19.3092 21.9546 18.952 22.6927 18.3965 23.1898Z" fill="#0C2455" stroke="#0C2455" stroke-width="0.3"/>
<path d="M24.4386 21.6376V11.9173L25.5257 12.701L25.5257 12.7011L25.5302 12.7042C25.6058 12.7546 25.7039 12.7792 25.7989 12.7666C25.8889 12.7546 25.98 12.7076 26.0382 12.6158C26.1218 12.5406 26.1613 12.4373 26.1473 12.3323C26.133 12.2252 26.0653 12.1339 25.9697 12.0817L16.1526 5.03433C15.958 4.88056 15.7008 4.85 15.5076 4.85C15.295 4.85 15.0527 4.91931 14.8758 5.02543L14.8756 5.02503L14.866 5.03189L5.00824 12.0555C4.92284 12.1135 4.87526 12.2057 4.85801 12.2919C4.84062 12.3789 4.84938 12.4833 4.90725 12.5701C4.96512 12.6569 5.05818 12.7052 5.14514 12.7226C5.2321 12.74 5.33656 12.7312 5.42337 12.6734L5.42342 12.6734L5.42788 12.6702L6.51501 11.8865V21.576C6.51501 22.121 6.9519 22.5579 7.49689 22.5579H9.65363C9.84716 22.5579 10.0501 22.4103 10.0501 22.1614C10.0501 21.9679 9.90254 21.7649 9.65363 21.7649H7.49689C7.36407 21.7649 7.27717 21.678 7.27717 21.5452V11.3626L15.2867 5.64587L15.2968 5.63864L15.3056 5.62984C15.3123 5.62311 15.3327 5.60951 15.3707 5.59782C15.4066 5.58678 15.4457 5.58135 15.4768 5.58135C15.5769 5.58135 15.6245 5.60627 15.648 5.62984L15.6568 5.63864L15.667 5.64587L23.6764 11.3626V21.6068C23.6764 21.717 23.5816 21.8266 23.4567 21.8266H21.2692C21.0756 21.8266 20.8727 21.9741 20.8727 22.223C20.8727 22.4166 21.0203 22.6195 21.2692 22.6195H23.4567C24.0017 22.6195 24.4386 22.1826 24.4386 21.6376Z" fill="#0C2455" stroke="#0C2455" stroke-width="0.3"/>
</svg>
