<svg width="76" height="84" viewBox="0 0 76 84" fill="none" xmlns="http://www.w3.org/2000/svg">
<g filter="url(#filter0_d)">
<mask id="path-1-inside-1" fill="white">
<path fill-rule="evenodd" clip-rule="evenodd" d="M26 20C22.6863 20 20 22.6863 20 26V50C20 53.3137 22.6863 56 26 56H32.8039L38 64L43.1962 56H50C53.3137 56 56 53.3137 56 50V26C56 22.6863 53.3137 20 50 20H26Z"/>
</mask>
<path fill-rule="evenodd" clip-rule="evenodd" d="M26 20C22.6863 20 20 22.6863 20 26V50C20 53.3137 22.6863 56 26 56H32.8039L38 64L43.1962 56H50C53.3137 56 56 53.3137 56 50V26C56 22.6863 53.3137 20 50 20H26Z" fill="#4364DA"/>
<path d="M32.8039 56L33.6425 55.4553L33.3468 55H32.8039V56ZM38 64L37.1614 64.5447L38 65.8359L38.8386 64.5447L38 64ZM43.1962 56V55H42.6532L42.3575 55.4553L43.1962 56ZM21 26C21 23.2386 23.2386 21 26 21V19C22.134 19 19 22.134 19 26H21ZM21 50V26H19V50H21ZM26 55C23.2386 55 21 52.7614 21 50H19C19 53.866 22.134 57 26 57V55ZM32.8039 55H26V57H32.8039V55ZM38.8386 63.4553L33.6425 55.4553L31.9652 56.5447L37.1614 64.5447L38.8386 63.4553ZM42.3575 55.4553L37.1614 63.4553L38.8386 64.5447L44.0348 56.5447L42.3575 55.4553ZM50 55H43.1962V57H50V55ZM55 50C55 52.7614 52.7614 55 50 55V57C53.866 57 57 53.866 57 50H55ZM55 26V50H57V26H55ZM50 21C52.7614 21 55 23.2386 55 26H57C57 22.134 53.866 19 50 19V21ZM26 21H50V19H26V21Z" fill="#3756C2" mask="url(#path-1-inside-1)"/>
<path d="M45.038 36.36C44.9276 36.36 44.838 36.4496 44.838 36.56V44.8C44.838 44.9105 44.7485 45 44.638 45H39.7821C39.6716 45 39.5821 44.9105 39.5821 44.8V38.7988C39.5821 38.6884 39.4925 38.5988 39.3821 38.5988H36.6184C36.5079 38.5988 36.4184 38.6883 36.4184 38.7988V44.8C36.4184 44.9105 36.3288 45 36.2184 45H31.3591C31.2487 45 31.1591 44.9105 31.1591 44.8V36.56C31.1591 36.4496 31.0696 36.36 30.9591 36.36H29.4697C29.2934 36.36 29.2034 36.1485 29.3255 36.0214L37.8542 27.1499C37.9329 27.0681 38.0639 27.0681 38.1426 27.1499L40.8949 30.0114C41.0198 30.1412 41.2391 30.0528 41.2391 29.8727V28.8493C41.2391 28.7388 41.3286 28.6493 41.4391 28.6493H43.5593C43.6697 28.6493 43.7593 28.7388 43.7593 28.8493V32.9086C43.7593 32.9603 43.7793 33.01 43.8151 33.0473L46.6745 36.0214C46.7966 36.1485 46.7066 36.36 46.5303 36.36H45.038Z" fill="#F0F0F9"/>
</g>
<defs>
<filter id="filter0_d" x="-4" y="0" width="84" height="84" filterUnits="userSpaceOnUse" color-interpolation-filters="sRGB">
<feFlood flood-opacity="0" result="BackgroundImageFix"/>
<feColorMatrix in="SourceAlpha" type="matrix" values="0 0 0 0 0 0 0 0 0 0 0 0 0 0 0 0 0 0 127 0"/>
<feOffset/>
<feGaussianBlur stdDeviation="10"/>
<feColorMatrix type="matrix" values="0 0 0 0 0.390938 0 0 0 0 0.432348 0 0 0 0 0.579167 0 0 0 0.2 0"/>
<feBlend mode="normal" in2="BackgroundImageFix" result="effect1_dropShadow"/>
<feBlend mode="normal" in="SourceGraphic" in2="effect1_dropShadow" result="shape"/>
</filter>
</defs>
</svg>
