<svg width="30" height="30" viewBox="0 0 30 30" fill="none" xmlns="http://www.w3.org/2000/svg">
<rect width="30" height="30" fill="white"/>
<path fill-rule="evenodd" clip-rule="evenodd" d="M18 6H24V17H18.5C18.2239 17 18 17.2239 18 17.5V20.5C18 20.7761 18.2239 21 18.5 21C18.7761 21 19 20.7761 19 20.5V18H24V24H22.5C22.2239 24 22 24.2239 22 24.5C22 24.7761 22.2239 25 22.5 25H24C24.5523 25 25 24.5523 25 24V17.5V6C25 5.44772 24.5523 5 24 5H17.5H6C5.44772 5 5 5.44772 5 6V13.5V17.5V24C5 24.5523 5.44772 25 6 25H14.5H18.5C18.7761 25 19 24.7761 19 24.5C19 24.2239 18.7761 24 18.5 24H15V17.5C15 17.2239 14.7761 17 14.5 17H11.5C11.2239 17 11 17.2239 11 17.5C11 17.7761 11.2239 18 11.5 18H14V24H6V18H7.5C7.77614 18 8 17.7761 8 17.5C8 17.2239 7.77614 17 7.5 17H6V14H7.5C7.77614 14 8 13.7761 8 13.5C8 13.2239 7.77614 13 7.5 13H6V6H17V13L11.5 13C11.2239 13 11 13.2239 11 13.5C11 13.7761 11.2239 14 11.5 14H17.5H20.5C20.7761 14 21 13.7761 21 13.5C21 13.2239 20.7761 13 20.5 13H18V6Z" fill="#0C2455"/>
</svg>
