<svg width="16" height="18" viewBox="0 0 16 18" fill="none" xmlns="http://www.w3.org/2000/svg">
<path d="M14.7211 7.09742C14.3678 6.25199 13.8572 5.48508 13.1893 4.83602C12.5411 4.18696 11.7748 3.65577 10.9298 3.30144C10.0456 2.92742 9.12184 2.73028 8.1587 2.72968C8.00145 2.72958 7.8442 2.72948 7.68694 2.74904L7.03939 0.999251L4.14778 4.47656L8.58956 5.24592L7.98125 3.59443C8.04022 3.59447 8.07953 3.5945 8.1385 3.59453C11.6176 3.59671 14.4463 6.42894 14.4441 9.90806C14.442 13.3872 11.6098 16.1766 8.13064 16.1744C4.65152 16.1722 1.82283 13.34 1.825 9.86086C1.82515 9.62499 1.6287 9.44796 1.41248 9.44782C1.17661 9.44768 0.999582 9.64413 0.999447 9.86034C0.998845 10.8235 1.19482 11.7671 1.56774 12.6322C1.92102 13.4776 2.4316 14.2445 3.0995 14.8936C3.74774 15.5427 4.51399 16.0738 5.35898 16.4282C6.24327 16.8022 7.16698 16.9993 8.13012 16.9999C9.09327 17.0005 10.0369 16.8046 10.902 16.4316C11.7474 16.0784 12.5143 15.5678 13.1634 14.8999C13.8124 14.2516 14.3436 13.4854 14.698 12.6404C15.072 11.7561 15.2691 10.8324 15.2697 9.86926C15.2703 8.90612 15.094 7.98217 14.7211 7.09742Z" fill="#0C2455" stroke="#0C2455" stroke-width="0.8"/>
</svg>
