<svg width="24" height="24" viewBox="0 0 24 24" fill="none" xmlns="http://www.w3.org/2000/svg">
<path fill-rule="evenodd" clip-rule="evenodd" d="M11.0531 16.5113C9.86258 16.5113 8.7431 16.0476 7.90109 15.2054C7.05908 14.3636 6.59539 13.2441 6.59539 12.0533C6.59539 10.8626 7.05908 9.74316 7.90125 8.90115C8.74326 8.0593 9.86258 7.59561 11.0531 7.59561C12.2439 7.59561 13.3634 8.0593 14.2054 8.90131C15.9435 10.6394 15.9435 13.4675 14.2057 15.2056C13.3634 16.0474 12.2439 16.5113 11.0531 16.5113ZM18.7665 19.7664C19.078 19.4548 19.078 18.9498 18.7665 18.6382L15.8598 15.7315C17.677 13.3601 17.5028 9.94197 15.334 7.77289C14.1906 6.62963 12.6705 6 11.0533 6C9.43646 6 7.91631 6.62963 6.77321 7.77289C5.62979 8.91631 5 10.4365 5 12.0533C5 13.6703 5.62979 15.1904 6.77321 16.3337C7.91631 17.4771 9.43646 18.1068 11.0533 18.1068C12.4011 18.1068 13.6808 17.6678 14.732 16.8601L17.6384 19.7664C17.9499 20.0779 18.455 20.0779 18.7665 19.7664Z" fill="#0C2455"/>
</svg>
