<svg display="none" xmlns="http://www.w3.org/2000/svg">
    <symbol id="heart" viewBox="0 -28 512.001 512">
        <path d="m256 455.515625c-7.289062 0-14.316406-2.640625-19.792969-7.4375-20.683593-18.085937-40.625-35.082031-58.21875-50.074219l-.089843-.078125c-51.582032-43.957031-96.125-81.917969-127.117188-119.3125-34.644531-41.804687-50.78125-81.441406-50.78125-124.742187 0-42.070313 14.425781-80.882813 40.617188-109.292969 26.503906-28.746094 62.871093-44.578125 102.414062-44.578125 29.554688 0 56.621094 9.34375 80.445312 27.769531 12.023438 9.300781 22.921876 20.683594 32.523438 33.960938 9.605469-13.277344 20.5-24.660157 32.527344-33.960938 23.824218-18.425781 50.890625-27.769531 80.445312-27.769531 39.539063 0 75.910156 15.832031 102.414063 44.578125 26.191406 28.410156 40.613281 67.222656 40.613281 109.292969 0 43.300781-16.132812 82.9375-50.777344 124.738281-30.992187 37.398437-75.53125 75.355469-127.105468 119.308594-17.625 15.015625-37.597657 32.039062-58.328126 50.167969-5.472656 4.789062-12.503906 7.429687-19.789062 7.429687zm-112.96875-425.523437c-31.066406 0-59.605469 12.398437-80.367188 34.914062-21.070312 22.855469-32.675781 54.449219-32.675781 88.964844 0 36.417968 13.535157 68.988281 43.882813 105.605468 29.332031 35.394532 72.960937 72.574219 123.476562 115.625l.09375.078126c17.660156 15.050781 37.679688 32.113281 58.515625 50.332031 20.960938-18.253907 41.011719-35.34375 58.707031-50.417969 50.511719-43.050781 94.136719-80.222656 123.46875-115.617188 30.34375-36.617187 43.878907-69.1875 43.878907-105.605468 0-34.515625-11.605469-66.109375-32.675781-88.964844-20.757813-22.515625-49.300782-34.914062-80.363282-34.914062-22.757812 0-43.652344 7.234374-62.101562 21.5-16.441406 12.71875-27.894532 28.796874-34.609375 40.046874-3.453125 5.785157-9.53125 9.238282-16.261719 9.238282s-12.808594-3.453125-16.261719-9.238282c-6.710937-11.25-18.164062-27.328124-34.609375-40.046874-18.449218-14.265626-39.34375-21.5-62.097656-21.5zm0 0"/>
    </symbol>

    <symbol id="arrow" viewBox="0 0 284.929 284.929" fill="#0C2455">
        <path d="M282.082,76.511l-14.274-14.273c-1.902-1.906-4.093-2.856-6.57-2.856c-2.471,0-4.661,0.95-6.563,2.856L142.466,174.441
		L30.262,62.241c-1.903-1.906-4.093-2.856-6.567-2.856c-2.475,0-4.665,0.95-6.567,2.856L2.856,76.515C0.95,78.417,0,80.607,0,83.082
		c0,2.473,0.953,4.663,2.856,6.565l133.043,133.046c1.902,1.903,4.093,2.854,6.567,2.854s4.661-0.951,6.562-2.854L282.082,89.647
		c1.902-1.903,2.847-4.093,2.847-6.565C284.929,80.607,283.984,78.417,282.082,76.511z"/>
    </symbol>

    <symbol id="heart_active" viewBox="0 0 22 21">
    <path fill-rule="evenodd" clip-rule="evenodd"
          d="M9.19558 18.7276L11 20.5333L12.7933 18.7378C18.1382 14.0057 22 10.5867 22 6.27308C22 2.75565 19.2469 0 15.732 0C13.9789 0 12.2477 0.731706 11 1.97934C9.75231 0.731706 8.02106 0 6.26799 0C2.75315 0 0 2.75565 0 6.27308C0 10.5838 3.85644 14.0008 9.19558 18.7276Z"
          fill="#FF8C42"/>

    <symbol id="search" viewBox="0 0 24 24" fill="none">
        <path fill-rule="evenodd" clip-rule="evenodd"
              d="M11.0531 16.5113C9.86258 16.5113 8.7431 16.0476 7.90109 15.2054C7.05908 14.3636 6.59539 13.2441 6.59539 12.0533C6.59539 10.8626 7.05908 9.74316 7.90125 8.90115C8.74326 8.0593 9.86258 7.59561 11.0531 7.59561C12.2439 7.59561 13.3634 8.0593 14.2054 8.90131C15.9435 10.6394 15.9435 13.4675 14.2057 15.2056C13.3634 16.0474 12.2439 16.5113 11.0531 16.5113ZM18.7665 19.7664C19.078 19.4548 19.078 18.9498 18.7665 18.6382L15.8598 15.7315C17.677 13.3601 17.5028 9.94197 15.334 7.77289C14.1906 6.62963 12.6705 6 11.0533 6C9.43646 6 7.91631 6.62963 6.77321 7.77289C5.62979 8.91631 5 10.4365 5 12.0533C5 13.6703 5.62979 15.1904 6.77321 16.3337C7.91631 17.4771 9.43646 18.1068 11.0533 18.1068C12.4011 18.1068 13.6808 17.6678 14.732 16.8601L17.6384 19.7664C17.9499 20.0779 18.455 20.0779 18.7665 19.7664Z"
              fill="#0C2455"/>
    </symbol>

    <symbol id="geo-tag" viewBox="0 0 12 18" fill="none">
        <path d="M6 0C2.8515 0 0 2.55225 0 5.7015C0 8.85 2.60175 12.609 6 18C9.39825 12.609 12 8.85 12 5.7015C12 2.55225 9.14925 0 6 0ZM6 8.25C4.75725 8.25 3.75 7.24275 3.75 6C3.75 4.75725 4.75725 3.75 6 3.75C7.24275 3.75 8.25 4.75725 8.25 6C8.25 7.24275 7.24275 8.25 6 8.25Z"
              fill="#0C2455"/>
    </symbol>
    <symbol id="search" viewBox="0 0 24 24" fill="none">
        <path fill-rule="evenodd" clip-rule="evenodd"
              d="M11.0531 16.5113C9.86258 16.5113 8.7431 16.0476 7.90109 15.2054C7.05908 14.3636 6.59539 13.2441 6.59539 12.0533C6.59539 10.8626 7.05908 9.74316 7.90125 8.90115C8.74326 8.0593 9.86258 7.59561 11.0531 7.59561C12.2439 7.59561 13.3634 8.0593 14.2054 8.90131C15.9435 10.6394 15.9435 13.4675 14.2057 15.2056C13.3634 16.0474 12.2439 16.5113 11.0531 16.5113ZM18.7665 19.7664C19.078 19.4548 19.078 18.9498 18.7665 18.6382L15.8598 15.7315C17.677 13.3601 17.5028 9.94197 15.334 7.77289C14.1906 6.62963 12.6705 6 11.0533 6C9.43646 6 7.91631 6.62963 6.77321 7.77289C5.62979 8.91631 5 10.4365 5 12.0533C5 13.6703 5.62979 15.1904 6.77321 16.3337C7.91631 17.4771 9.43646 18.1068 11.0533 18.1068C12.4011 18.1068 13.6808 17.6678 14.732 16.8601L17.6384 19.7664C17.9499 20.0779 18.455 20.0779 18.7665 19.7664Z"
              fill="#0C2455"/>
    </symbol>

    <symbol id="geo-tag" viewBox="0 0 12 18" fill="none">
        <path d="M6 0C2.8515 0 0 2.55225 0 5.7015C0 8.85 2.60175 12.609 6 18C9.39825 12.609 12 8.85 12 5.7015C12 2.55225 9.14925 0 6 0ZM6 8.25C4.75725 8.25 3.75 7.24275 3.75 6C3.75 4.75725 4.75725 3.75 6 3.75C7.24275 3.75 8.25 4.75725 8.25 6C8.25 7.24275 7.24275 8.25 6 8.25Z"
              fill="#0C2455"/>
    </symbol>
    <symbol viewBox="0 0 14 20" fill="none" id="marker">
        <path d="M6.66667 0C3.16833 0 0 2.83583 0 6.335C0 9.83333 2.89083 14.01 6.66667 20C10.4425 14.01 13.3333 9.83333 13.3333 6.335C13.3333 2.83583 10.1658 0 6.66667 0ZM6.66667 9.16667C5.28583 9.16667 4.16667 8.0475 4.16667 6.66667C4.16667 5.28583 5.28583 4.16667 6.66667 4.16667C8.0475 4.16667 9.16667 5.28583 9.16667 6.66667C9.16667 8.0475 8.0475 9.16667 6.66667 9.16667Z"
              fill="white"/>
    </symbol>

    <symbol viewBox="0 0 24 24" id="sort">
        <path d="M4.72374 7.79066C5.11426 8.18119 5.74743 8.18119 6.13795 7.79066L8.04259 5.88602V21.5806C8.04259 22.1328 8.49031 22.5806 9.04259 22.5806H9.06642C9.6187 22.5806 10.0664 22.1328 10.0664 21.5806V1L4.70705 6.35982C4.31655 6.75035 4.31656 7.38349 4.70708 7.774L4.72374 7.79066Z"
              fill="#0C2455"/>
        <path d="M19.1654 16.2093C18.7748 15.8188 18.1417 15.8188 17.7512 16.2093L15.8465 18.114V2.41944C15.8465 1.86715 15.3988 1.41943 14.8465 1.41943H14.8227C14.2704 1.41943 13.8227 1.86715 13.8227 2.41943V23L19.1821 17.6402C19.5726 17.2497 19.5725 16.6165 19.182 16.226L19.1654 16.2093Z"
              fill="#0C2455"/>
    </symbol>

    <symbol viewBox="0 0 80 80" id="image-not-found">
        <path d="M35.5835 28.7473C35.2979 28.2472 34.5837 28.1758 34.2088 28.6223L17.8015 50.4474C17.3552 50.9653 17.6944 51.769 18.3728 51.8226L47.1347 54.323C47.8131 54.3766 48.2773 53.6443 47.9381 53.055L35.5835 28.7473ZM54.3117 40.3385C54.0261 39.8384 53.312 39.767 52.937 40.2135L48.5094 44.6964C48.3963 44.828 48.3269 44.9916 48.3109 45.1644C48.2949 45.3372 48.3331 45.5107 48.4201 45.6609L52.9549 54.5016C53.0977 54.7338 53.3298 54.8946 53.6155 54.9124L61.6316 55.609C62.3101 55.6625 62.7743 54.9303 62.435 54.3409L54.3117 40.3385ZM56.2578 33.248C58.2573 33.2302 59.9891 31.7657 60.364 29.8189C60.8639 27.1756 58.8287 24.7645 56.1328 24.8002C54.1332 24.8181 52.4014 26.2826 52.0265 28.2293C51.5266 30.8726 53.5619 33.2838 56.2578 33.248Z"
              fill="#D5DBE5"/>
        <path d="M75.5564 17.3815L63.8088 16.3635L62.7198 4.39719C62.4877 1.73603 60.131 -0.228588 57.453 0.0214543L4.41056 4.80798C1.75041 5.04016 -0.213469 7.3977 0.0186252 10.0589L4.80334 63.0142C5.03543 65.6754 7.39208 67.64 10.0701 67.39L12.8731 67.1399L12.6053 70.1226C12.3732 72.7837 14.3371 75.1234 17.0151 75.3556L70.0932 79.9814C72.7534 80.2135 75.11 78.2489 75.3421 75.5878L79.984 22.6146C80.1983 19.9712 78.2344 17.6137 75.5564 17.3815ZM9.92726 47.9938C9.26669 48.0474 8.67753 47.5652 8.60611 46.9044L5.3925 11.1841C5.33894 10.5232 5.82098 9.93384 6.48156 9.88026L56.3283 5.39736C56.9888 5.34378 57.578 5.82601 57.6494 6.48683L58.5064 15.917L22.4961 12.7557C19.8359 12.5236 17.4793 14.4882 17.2472 17.1493L14.587 47.5652L9.92726 47.9938ZM74.5923 23.7755L71.4679 59.4958C71.4144 60.1566 70.8252 60.6567 70.1646 60.6031L66.8439 60.3173L20.3001 56.2631C19.6395 56.2095 19.1396 55.6201 19.1932 54.9593L19.8716 47.1187L22.3175 19.239C22.3711 18.5782 22.9602 18.0781 23.6208 18.1317L58.9706 21.2215L64.273 21.6858L73.4854 22.4895C74.1638 22.5252 74.6637 23.1146 74.5923 23.7755Z"
              fill="#D5DBE5"/>

    </symbol>
    <symbol viewBox="0 0 20 20" id="close">
        <rect x="4.33093" y="5.66906" width="1.75" height="14" rx="0.875" transform="rotate(-45 4.33093 5.66906)" fill="#0C2455"/>
        <rect x="14.2305" y="4.43153" width="1.75" height="14" rx="0.875" transform="rotate(45 14.2305 4.43153)" fill="#0C2455"/>
    </symbol>

    <symbol viewBox="0 0 20 19" id="all-filters">
            <path d="M3.75 1L3.75 11C3.75 11.2652 3.65781 11.5196 3.49372 11.7071C3.32962 11.8946 3.10706 12 2.875 12C2.64294 12 2.42038 11.8946 2.25628 11.7071C2.09219 11.5196 2 11.2652 2 11L2 1C2 0.734783 2.09219 0.480429 2.25628 0.292892C2.42038 0.105356 2.64294 -2.81036e-08 2.875 -3.82475e-08C3.10706 -4.83913e-08 3.32962 0.105356 3.49372 0.292892C3.65781 0.480429 3.75 0.734783 3.75 1Z" fill="#0C2455"/>
            <path d="M3.75 16L3.75 18C3.75 18.2652 3.65781 18.5196 3.49372 18.7071C3.32962 18.8946 3.10706 19 2.875 19C2.64294 19 2.42038 18.8946 2.25628 18.7071C2.09219 18.5196 2 18.2652 2 18L2 16C2 15.7348 2.09219 15.4804 2.25628 15.2929C2.42038 15.1054 2.64294 15 2.875 15C3.10706 15 3.32962 15.1054 3.49372 15.2929C3.65781 15.4804 3.75 15.7348 3.75 16Z" fill="#0C2455"/>
            <path d="M10.75 6.94737V18.0526C10.75 18.3039 10.6578 18.5449 10.4937 18.7225C10.3296 18.9002 10.1071 19 9.875 19C9.64294 19 9.42038 18.9002 9.25628 18.7225C9.09219 18.5449 9 18.3039 9 18.0526L9 6.94737C9 6.69611 9.09219 6.45514 9.25628 6.27748C9.42038 6.09981 9.64294 6 9.875 6C10.1071 6 10.3296 6.09981 10.4937 6.27748C10.6578 6.45514 10.75 6.69611 10.75 6.94737Z" fill="#0C2455"/>
            <path d="M17.75 13.8889V18.1111C17.75 18.3469 17.6578 18.573 17.4937 18.7397C17.3296 18.9063 17.1071 19 16.875 19C16.6429 19 16.4204 18.9063 16.2563 18.7397C16.0922 18.573 16 18.3469 16 18.1111V13.8889C16 13.6531 16.0922 13.427 16.2563 13.2603C16.4204 13.0937 16.6429 13 16.875 13C17.1071 13 17.3296 13.0937 17.4937 13.2603C17.6578 13.427 17.75 13.6531 17.75 13.8889Z" fill="#0C2455"/>
            <path d="M6 14C6 14.5933 5.82405 15.1734 5.49441 15.6667C5.16477 16.1601 4.69623 16.5446 4.14805 16.7716C3.59987 16.9987 2.99667 17.0581 2.41473 16.9424C1.83279 16.8266 1.29824 16.5409 0.878681 16.1213C0.459123 15.7018 0.173401 15.1672 0.0576455 14.5853C-0.0581102 14.0033 0.00129986 13.4001 0.228363 12.8519C0.455426 12.3038 0.839943 11.8352 1.33329 11.5056C1.82664 11.1759 2.40666 11 3 11C3.79565 11 4.55871 11.3161 5.12132 11.8787C5.68393 12.4413 6 13.2043 6 14ZM2 14C2 14.1978 2.05865 14.3911 2.16853 14.5556C2.27841 14.72 2.43459 14.8482 2.61732 14.9239C2.80004 14.9996 3.00111 15.0194 3.19509 14.9808C3.38907 14.9422 3.56726 14.847 3.70711 14.7071C3.84696 14.5673 3.9422 14.3891 3.98079 14.1951C4.01937 14.0011 3.99957 13.8 3.92388 13.6173C3.84819 13.4346 3.72002 13.2784 3.55557 13.1685C3.39112 13.0586 3.19778 13 3 13C2.73478 13 2.48043 13.1054 2.29289 13.2929C2.10536 13.4804 2 13.7348 2 14Z" fill="#0C2455"/>
            <path d="M13 5C13 5.59334 12.8241 6.17336 12.4944 6.66671C12.1648 7.16006 11.6962 7.54457 11.1481 7.77164C10.5999 7.9987 9.99667 8.05811 9.41473 7.94235C8.83279 7.8266 8.29824 7.54088 7.87868 7.12132C7.45912 6.70176 7.1734 6.16721 7.05765 5.58527C6.94189 5.00333 7.0013 4.40013 7.22836 3.85195C7.45543 3.30377 7.83994 2.83523 8.33329 2.50559C8.82664 2.17594 9.40666 2 10 2C10.7957 2 11.5587 2.31607 12.1213 2.87868C12.6839 3.44129 13 4.20435 13 5ZM9 5C9 5.19778 9.05865 5.39112 9.16853 5.55557C9.27841 5.72002 9.43459 5.84819 9.61732 5.92388C9.80004 5.99957 10.0011 6.01937 10.1951 5.98078C10.3891 5.9422 10.5673 5.84696 10.7071 5.70711C10.847 5.56725 10.9422 5.38907 10.9808 5.19509C11.0194 5.00111 10.9996 4.80004 10.9239 4.61732C10.8482 4.43459 10.72 4.27841 10.5556 4.16853C10.3911 4.05865 10.1978 4 10 4C9.73479 4 9.48043 4.10535 9.2929 4.29289C9.10536 4.48043 9 4.73478 9 5Z" fill="#0C2455"/>
            <path d="M20 11C20 11.5933 19.8241 12.1734 19.4944 12.6667C19.1648 13.1601 18.6962 13.5446 18.1481 13.7716C17.5999 13.9987 16.9967 14.0581 16.4147 13.9424C15.8328 13.8266 15.2982 13.5409 14.8787 13.1213C14.4591 12.7018 14.1734 12.1672 14.0576 11.5853C13.9419 11.0033 14.0013 10.4001 14.2284 9.85195C14.4554 9.30377 14.8399 8.83523 15.3333 8.50559C15.8266 8.17595 16.4067 8 17 8C17.7957 8 18.5587 8.31607 19.1213 8.87868C19.6839 9.44129 20 10.2043 20 11ZM16 11C16 11.1978 16.0586 11.3911 16.1685 11.5556C16.2784 11.72 16.4346 11.8482 16.6173 11.9239C16.8 11.9996 17.0011 12.0194 17.1951 11.9808C17.3891 11.9422 17.5673 11.847 17.7071 11.7071C17.847 11.5673 17.9422 11.3891 17.9808 11.1951C18.0194 11.0011 17.9996 10.8 17.9239 10.6173C17.8482 10.4346 17.72 10.2784 17.5556 10.1685C17.3911 10.0586 17.1978 10 17 10C16.7348 10 16.4804 10.1054 16.2929 10.2929C16.1054 10.4804 16 10.7348 16 11Z" fill="#0C2455"/>
            <path d="M17.75 1L17.75 8C17.75 8.26522 17.6578 8.51957 17.4937 8.70711C17.3296 8.89464 17.1071 9 16.875 9C16.6429 9 16.4204 8.89464 16.2563 8.70711C16.0922 8.51957 16 8.26522 16 8L16 1C16 0.734783 16.0922 0.480429 16.2563 0.292892C16.4204 0.105356 16.6429 -2.81036e-08 16.875 -3.82475e-08C17.1071 -4.83913e-08 17.3296 0.105356 17.4937 0.292892C17.6578 0.480429 17.75 0.734783 17.75 1Z" fill="#0C2455"/>
            <path d="M9 0.875C9 0.391751 9.39175 0 9.875 0C10.3582 0 10.75 0.391751 10.75 0.875V2.125C10.75 2.60825 10.3582 3 9.875 3C9.39175 3 9 2.60825 9 2.125V0.875Z" fill="#0C2455"/>
    </symbol>

</svg>
