<?xml version="1.0" encoding="UTF-8"?>
<svg xmlns="http://www.w3.org/2000/svg" xmlns:xlink="http://www.w3.org/1999/xlink" width="30pt" height="30pt" viewBox="0 0 30 30" version="1.1">
<g id="surface1">
<path style=" stroke:none;fill-rule:nonzero;fill:rgb(38.431373%,38.431373%,38.431373%);fill-opacity:1;" d="M 15 11.253906 C 17.070312 11.253906 18.75 12.933594 18.75 15.003906 C 18.75 17.074219 17.070312 18.753906 15 18.753906 C 12.929688 18.753906 11.25 17.074219 11.25 15.003906 C 11.253906 12.933594 12.929688 11.257812 15 11.253906 M 15 9.378906 C 11.894531 9.378906 9.375 11.898438 9.375 15.003906 C 9.375 18.109375 11.894531 20.628906 15 20.628906 C 18.105469 20.628906 20.625 18.109375 20.625 15.003906 C 20.625 11.898438 18.105469 9.378906 15 9.378906 Z M 15 9.378906 "/>
<path style=" stroke:none;fill-rule:nonzero;fill:rgb(38.431373%,38.431373%,38.431373%);fill-opacity:1;" d="M 5.058594 6.386719 L 6.382812 5.0625 L 9.667969 8.347656 L 8.34375 9.671875 Z M 5.058594 6.386719 "/>
<path style=" stroke:none;fill-rule:nonzero;fill:rgb(38.431373%,38.431373%,38.431373%);fill-opacity:1;" d="M 1.875 14.066406 L 6.5625 14.066406 L 6.5625 15.941406 L 1.875 15.941406 Z M 1.875 14.066406 "/>
<path style=" stroke:none;fill-rule:nonzero;fill:rgb(38.431373%,38.431373%,38.431373%);fill-opacity:1;" d="M 5.058594 23.621094 L 8.34375 20.335938 L 9.667969 21.660156 L 6.382812 24.949219 Z M 5.058594 23.621094 "/>
<path style=" stroke:none;fill-rule:nonzero;fill:rgb(38.431373%,38.431373%,38.431373%);fill-opacity:1;" d="M 14.0625 23.441406 L 15.9375 23.441406 L 15.9375 28.128906 L 14.0625 28.128906 Z M 14.0625 23.441406 "/>
<path style=" stroke:none;fill-rule:nonzero;fill:rgb(38.431373%,38.431373%,38.431373%);fill-opacity:1;" d="M 20.332031 21.660156 L 21.65625 20.335938 L 24.945312 23.621094 L 23.617188 24.949219 Z M 20.332031 21.660156 "/>
<path style=" stroke:none;fill-rule:nonzero;fill:rgb(38.431373%,38.431373%,38.431373%);fill-opacity:1;" d="M 23.4375 14.066406 L 28.125 14.066406 L 28.125 15.941406 L 23.4375 15.941406 Z M 23.4375 14.066406 "/>
<path style=" stroke:none;fill-rule:nonzero;fill:rgb(38.431373%,38.431373%,38.431373%);fill-opacity:1;" d="M 20.332031 8.347656 L 23.617188 5.0625 L 24.945312 6.386719 L 21.65625 9.671875 Z M 20.332031 8.347656 "/>
<path style=" stroke:none;fill-rule:nonzero;fill:rgb(38.431373%,38.431373%,38.431373%);fill-opacity:1;" d="M 14.0625 1.878906 L 15.9375 1.878906 L 15.9375 6.566406 L 14.0625 6.566406 Z M 14.0625 1.878906 "/>
</g>
</svg>
