<svg width="40" height="40" viewBox="0 0 40 40" fill="none" xmlns="http://www.w3.org/2000/svg">
<path d="M21.7989 34.6692C22.6621 34.6692 23.5325 34.6692 24.3957 34.6692C25.4944 34.6692 26.5717 34.6621 27.6418 34.3624C30.6739 33.5134 33.0496 30.9023 33.5561 27.7846C33.6774 27.0569 33.6703 26.3435 33.6703 25.6087C33.6703 24.617 33.6703 23.6254 33.6703 22.6337C33.6703 20.8715 33.6703 19.1094 33.6703 17.3472C33.6631 13.8942 32.3362 10.5411 29.9319 8.05126C27.3493 5.37591 23.6823 3.89199 19.9654 4.00613C16.7977 4.10601 13.7371 5.34738 11.3971 7.48052C9.07846 9.59226 7.566 12.5102 7.16648 15.6207C6.95245 17.3044 7.05947 19.038 7.05947 20.7288C7.05947 22.598 7.05947 24.4672 7.05947 26.3364C7.05947 26.5789 7.05947 26.8215 7.05947 27.0712C7.05947 27.5278 7.77289 27.5278 7.77289 27.0712C7.77289 23.9393 7.77289 20.8002 7.77289 17.6682C7.77289 14.9073 8.49346 12.2747 10.0987 10.006C11.8466 7.53759 14.4934 5.76116 17.4327 5.05487C20.85 4.24156 24.5099 4.91219 27.4207 6.87411C30.4028 8.8931 32.436 12.1963 32.8641 15.7777C33.0639 17.4756 32.9497 19.2378 32.9497 20.9357C32.9497 22.7122 32.9497 24.4886 32.9497 26.2722C32.9497 28.9689 31.6085 31.4945 29.2684 32.8928C28.077 33.6062 26.7286 33.9486 25.3446 33.9558C24.4171 33.9558 23.4897 33.9558 22.5622 33.9558C22.3054 33.9558 22.0414 33.9558 21.7846 33.9558C21.3423 33.9558 21.3423 34.6692 21.7989 34.6692Z" fill="#0C2455" stroke="#0C2455" stroke-width="0.6"/>
<path d="M10.1713 28.1416C9.82882 28.1416 9.45784 28.1773 9.1154 28.1202C8.53039 28.0203 8.03099 27.5922 7.83123 27.0358C7.66 26.5578 7.73135 25.9585 7.73135 25.4591C7.73135 23.8753 7.73135 22.2843 7.73135 20.7005C7.73135 19.873 8.05952 19.0882 8.9299 18.8314C9.31515 18.7172 9.75034 18.76 10.1427 18.76C10.6921 18.7672 11.2057 19.0026 11.5339 19.4592C11.9049 19.98 11.8478 20.5864 11.8478 21.1857C11.8478 22.0275 11.8478 22.8622 11.8478 23.7041C11.8478 24.5388 11.8478 25.3735 11.8478 26.2082C11.8478 26.4936 11.8478 26.7647 11.7479 27.0358C11.5125 27.7064 10.8704 28.1273 10.1713 28.1416C9.71467 28.1559 9.71467 28.8693 10.1713 28.855C11.5054 28.8265 12.5327 27.7777 12.5612 26.4508C12.5755 25.8158 12.5612 25.1737 12.5612 24.5316C12.5612 23.5614 12.5612 22.584 12.5612 21.6137C12.5612 20.993 12.6397 20.2725 12.44 19.6803C12.2188 19.0311 11.7337 18.5032 11.1059 18.2392C10.6065 18.0323 10.0999 18.0466 9.57199 18.0466C8.28069 18.0466 7.15347 18.8956 7.03219 20.2368C6.98225 20.8076 7.02506 21.3997 7.02506 21.9776C7.02506 22.9835 7.02506 23.9823 7.02506 24.9882C7.02506 25.6874 6.91804 26.5435 7.14634 27.2213C7.3889 27.9276 7.94538 28.4912 8.6588 28.7337C9.14393 28.8978 9.679 28.855 10.1784 28.855C10.6279 28.855 10.635 28.1416 10.1713 28.1416Z" fill="#0C2455"/>
<path d="M10.1713 28.1416C9.82882 28.1416 9.45784 28.1773 9.11539 28.1202C8.53039 28.0203 8.03099 27.5922 7.83123 27.0358C7.66 26.5578 7.73135 25.9585 7.73135 25.4591C7.73135 23.8753 7.73135 22.2843 7.73135 20.7005C7.73135 19.873 8.05952 19.0882 8.9299 18.8314C9.31515 18.7172 9.75034 18.76 10.1427 18.76C10.6921 18.7672 11.2057 19.0026 11.5339 19.4592C11.9049 19.98 11.8478 20.5864 11.8478 21.1857C11.8478 22.0275 11.8478 22.8622 11.8478 23.7041C11.8478 24.5388 11.8478 25.3735 11.8478 26.2082C11.8478 26.4936 11.8478 26.7647 11.7479 27.0358C11.5125 27.7064 10.8704 28.1273 10.1713 28.1416ZM10.1713 28.1416C9.71467 28.1558 9.71467 28.8693 10.1713 28.855C11.5054 28.8265 12.5327 27.7777 12.5612 26.4508C12.5755 25.8158 12.5612 25.1737 12.5612 24.5316C12.5612 23.5614 12.5612 22.584 12.5612 21.6137C12.5612 20.993 12.6397 20.2725 12.44 19.6803C12.2188 19.0311 11.7337 18.5032 11.1059 18.2392C10.6065 18.0323 10.0999 18.0466 9.57199 18.0466C8.28069 18.0466 7.15347 18.8956 7.03219 20.2368C6.98225 20.8076 7.02506 21.3997 7.02506 21.9776C7.02506 22.9835 7.02506 23.9823 7.02506 24.9882C7.02506 25.6874 6.91804 26.5435 7.14634 27.2213C7.3889 27.9276 7.94538 28.4912 8.6588 28.7337C9.14393 28.8978 9.679 28.855 10.1784 28.855C10.6279 28.855 10.635 28.1416 10.1713 28.1416Z" stroke="#0C2455" stroke-width="0.6"/>
<path d="M31.139 28.0053C30.7324 28.0053 30.3257 28.0338 29.9405 27.884C29.3911 27.67 28.9774 27.1777 28.8489 26.607C28.7491 26.1433 28.8061 25.6082 28.8061 25.1373C28.8061 23.6249 28.8061 22.1053 28.8061 20.5928C28.8061 19.7296 29.2342 18.9377 30.1117 18.6951C31.0534 18.4383 32.2377 18.6808 32.7157 19.594C32.9797 20.0934 32.9155 20.6855 32.9155 21.2277C32.9155 22.0553 32.9155 22.8829 32.9155 23.7105C32.9155 24.4881 32.9155 25.2657 32.9155 26.0505C32.9226 27.0921 32.252 27.9839 31.139 28.0053C30.6824 28.0124 30.6824 28.7259 31.139 28.7187C32.516 28.6902 33.6075 27.6058 33.636 26.2217C33.6432 25.6581 33.636 25.0874 33.636 24.5238C33.636 23.5749 33.636 22.6189 33.636 21.6701C33.636 21.0779 33.7002 20.4216 33.5718 19.8366C32.9654 17.1755 28.5921 17.2754 28.1355 19.9793C28.0428 20.55 28.0927 21.1635 28.0927 21.7343C28.0927 22.7117 28.0927 23.6819 28.0927 24.6593C28.0927 25.3514 28.0071 26.1219 28.1569 26.7996C28.321 27.513 28.8275 28.148 29.491 28.469C30.019 28.7259 30.5612 28.7259 31.139 28.7259C31.5956 28.7187 31.5956 28.0053 31.139 28.0053Z" fill="#0C2455"/>
<path d="M31.139 28.0053C30.7324 28.0053 30.3257 28.0338 29.9405 27.884C29.3911 27.67 28.9774 27.1777 28.8489 26.607C28.7491 26.1433 28.8061 25.6082 28.8061 25.1373C28.8061 23.6249 28.8061 22.1053 28.8061 20.5928C28.8061 19.7296 29.2342 18.9377 30.1117 18.6951C31.0534 18.4383 32.2377 18.6808 32.7157 19.594C32.9797 20.0934 32.9155 20.6855 32.9155 21.2277C32.9155 22.0553 32.9155 22.8829 32.9155 23.7105C32.9155 24.4881 32.9155 25.2657 32.9155 26.0505C32.9226 27.0921 32.252 27.9839 31.139 28.0053ZM31.139 28.0053C30.6824 28.0124 30.6824 28.7259 31.139 28.7187C32.516 28.6902 33.6075 27.6058 33.636 26.2217C33.6432 25.6581 33.636 25.0874 33.636 24.5238C33.636 23.5749 33.636 22.6189 33.636 21.6701C33.636 21.0779 33.7002 20.4216 33.5718 19.8366C32.9654 17.1755 28.5921 17.2754 28.1355 19.9793C28.0428 20.55 28.0927 21.1635 28.0927 21.7343C28.0927 22.7117 28.0927 23.6819 28.0927 24.6593C28.0927 25.3514 28.0071 26.1219 28.1569 26.7996C28.321 27.513 28.8275 28.148 29.491 28.469C30.019 28.7259 30.5612 28.7259 31.139 28.7259C31.5956 28.7187 31.5956 28.0053 31.139 28.0053Z" stroke="#0C2455" stroke-width="0.6"/>
<path d="M21.4362 34.2487C21.4148 34.8194 20.9868 35.2404 20.4232 35.2618C20.2448 35.2689 20.0593 35.2618 19.881 35.2618C19.3816 35.2618 18.8536 35.3117 18.3542 35.2618C17.2484 35.1476 17.1271 33.5281 18.2187 33.2642C18.7109 33.1429 19.3174 33.2356 19.8168 33.2356C20.0379 33.2356 20.2591 33.2214 20.4731 33.2356C21.0224 33.2642 21.422 33.7065 21.4362 34.2487C21.4505 34.7053 22.1639 34.7053 22.1497 34.2487C22.1283 33.6423 21.8429 33.093 21.3221 32.7719C20.9725 32.5579 20.5873 32.5222 20.1877 32.5222C19.7811 32.5222 19.3673 32.5222 18.9606 32.5222C18.6111 32.5222 18.2544 32.4937 17.919 32.6078C16.6349 33.0216 16.3138 34.7481 17.3626 35.5971C18.0118 36.125 18.9321 35.9823 19.7097 35.9823C20.0807 35.9823 20.4802 36.018 20.8441 35.9324C21.6217 35.7398 22.114 35.0406 22.1497 34.2558C22.1711 33.785 21.4576 33.785 21.4362 34.2487Z" fill="#0C2455"/>
<path d="M21.4362 34.2487C21.4148 34.8194 20.9868 35.2404 20.4232 35.2618C20.2448 35.2689 20.0593 35.2618 19.881 35.2618C19.3816 35.2618 18.8536 35.3117 18.3542 35.2618C17.2484 35.1476 17.1271 33.5281 18.2187 33.2642C18.7109 33.1429 19.3174 33.2356 19.8168 33.2356C20.0379 33.2356 20.2591 33.2214 20.4731 33.2356C21.0224 33.2642 21.422 33.7065 21.4362 34.2487ZM21.4362 34.2487C21.4505 34.7053 22.1639 34.7053 22.1497 34.2487C22.1283 33.6423 21.8429 33.093 21.3221 32.7719C20.9725 32.5579 20.5873 32.5222 20.1877 32.5222C19.7811 32.5222 19.3673 32.5222 18.9606 32.5222C18.6111 32.5222 18.2544 32.4937 17.919 32.6078C16.6349 33.0216 16.3138 34.7481 17.3626 35.5971C18.0118 36.125 18.9321 35.9823 19.7097 35.9823C20.0807 35.9823 20.4802 36.018 20.8441 35.9324C21.6217 35.7398 22.114 35.0406 22.1497 34.2558C22.1711 33.785 21.4576 33.785 21.4362 34.2487Z" stroke="#0C2455" stroke-width="0.6"/>
</svg>
