<svg width="40" height="40" viewBox="0 0 40 40" fill="none" xmlns="http://www.w3.org/2000/svg">
<path d="M20.6467 8.79016V6.8125C20.6467 6.45526 20.3571 6.16565 19.9999 6.16565C19.6426 6.16565 19.353 6.45526 19.353 6.8125V8.79016C19.353 9.1474 19.6426 9.43701 19.9999 9.43701C20.3571 9.43701 20.6467 9.1474 20.6467 8.79016Z" fill="#0C2455"/>
<path d="M33.2526 19.4194H31.2758C30.9185 19.4194 30.6289 19.709 30.6289 20.0663C30.6289 20.4235 30.9185 20.7131 31.2758 20.7131H33.2526C33.6098 20.7131 33.8994 20.4235 33.8994 20.0663C33.8994 19.709 33.6098 19.4194 33.2526 19.4194Z" fill="#0C2455"/>
<path d="M20.6467 33.3199V31.3427C20.6467 30.9854 20.3571 30.6958 19.9999 30.6958C19.6426 30.6958 19.353 30.9854 19.353 31.3427V33.3199C19.353 33.6771 19.6426 33.9667 19.9999 33.9667C20.3571 33.9667 20.6467 33.6771 20.6467 33.3199Z" fill="#0C2455"/>
<path d="M8.72277 19.4194H6.74598C6.38873 19.4194 6.09912 19.709 6.09912 20.0663C6.09912 20.4235 6.38873 20.7131 6.74598 20.7131H8.72277C9.08001 20.7131 9.36962 20.4235 9.36962 20.0663C9.36962 19.709 9.08001 19.4194 8.72277 19.4194Z" fill="#0C2455"/>
<path d="M10.1714 11.1522L11.5695 12.5503C11.8221 12.8029 12.2316 12.8029 12.4842 12.5503C12.7369 12.2977 12.7369 11.8881 12.4842 11.6355L11.0862 10.2374C10.8335 9.98481 10.424 9.98481 10.1714 10.2374C9.91876 10.49 9.91876 10.8996 10.1714 11.1522Z" fill="#0C2455"/>
<path d="M29.2565 10.5599L27.8098 11.9075C27.5484 12.151 27.5339 12.5603 27.7774 12.8217C28.0209 13.0831 28.4302 13.0976 28.6916 12.8541L30.1383 11.5065C30.3997 11.263 30.4142 10.8537 30.1707 10.5923C29.9272 10.3309 29.5179 10.3164 29.2565 10.5599Z" fill="#0C2455"/>
<path d="M27.2129 28.7594L28.5606 30.2061C28.8041 30.4675 29.2134 30.482 29.4748 30.2385C29.7362 29.995 29.7507 29.5857 29.5072 29.3243L28.1595 27.8776C27.916 27.6162 27.5067 27.6017 27.2453 27.8452C26.9839 28.0887 26.9694 28.498 27.2129 28.7594Z" fill="#0C2455"/>
<path d="M11.3063 27.2785L9.85958 28.6262C9.59818 28.8697 9.58367 29.279 9.82717 29.5404C10.0707 29.8018 10.48 29.8163 10.7414 29.5728L12.1881 28.2251C12.4495 27.9816 12.464 27.5723 12.2205 27.3109C11.977 27.0495 11.5677 27.035 11.3063 27.2785Z" fill="#0C2455"/>
<path d="M22.6956 17.3707C22.4429 17.118 22.0332 17.118 21.7806 17.3707L20 19.1517L16.0084 15.1602C15.7557 14.9075 15.3461 14.9076 15.0934 15.1603C14.8409 15.4129 14.841 15.8225 15.0936 16.075L19.0849 20.0664L17.6904 21.4612C17.4378 21.7138 17.4379 22.1233 17.6904 22.3758C17.943 22.6284 18.3526 22.6284 18.6051 22.3758L20 20.981L21.538 22.519C21.7905 22.7716 22.2 22.7716 22.4526 22.519C22.7052 22.2664 22.7052 21.8569 22.4526 21.6044L20.9146 20.0664L22.6956 18.2857C22.9483 18.0331 22.9483 17.6234 22.6956 17.3707Z" fill="#0C2455"/>
<path d="M19.9998 3.06616C10.626 3.06616 3 10.6926 3 20.0664C3 29.4397 10.626 37.0662 19.9998 37.0662C29.3731 37.0662 37 29.4397 37 20.0664C37 10.6926 29.3731 3.06616 19.9998 3.06616ZM19.9998 35.7725C11.3393 35.7725 4.29371 28.7265 4.29371 20.0664C4.29371 11.4054 11.3393 4.35987 19.9998 4.35987C28.6603 4.35987 35.7063 11.4054 35.7063 20.0664C35.7063 28.7265 28.6603 35.7725 19.9998 35.7725Z" fill="#0C2455"/>
</svg>
