<svg width="30" height="30" viewBox="0 0 30 30" fill="none" xmlns="http://www.w3.org/2000/svg">
<rect width="30" height="30" fill="white"/>
<path fill-rule="evenodd" clip-rule="evenodd" d="M3.44104 26.52C3.44104 26.7851 3.65594 27 3.92104 27H25.041C25.3061 27 25.521 26.7851 25.521 26.52V15.48H24.561V26.04H4.40104V8.76003H3.44104V26.52Z" fill="#0C2455"/>
<path fill-rule="evenodd" clip-rule="evenodd" d="M6.32104 19.7996C6.32104 19.5345 6.53595 19.3196 6.80104 19.3196H9.68104C9.94613 19.3196 10.161 19.5345 10.161 19.7996V26.9996H9.20104V20.2796H7.28104V26.9996H6.32104V19.7996Z" fill="#0C2455"/>
<path fill-rule="evenodd" clip-rule="evenodd" d="M6.32104 13.0796V15.9596C6.32104 16.2247 6.53595 16.4396 6.80104 16.4396H9.68104C9.94613 16.4396 10.161 16.2247 10.161 15.9596V13.0796C10.161 12.8145 9.94613 12.5996 9.68104 12.5996H6.80104C6.53595 12.5996 6.32104 12.8145 6.32104 13.0796ZM7.28104 13.5596H9.20104V15.4796H7.28104V13.5596Z" fill="#0C2455"/>
<path fill-rule="evenodd" clip-rule="evenodd" d="M14.9609 19.8638V23.1293C14.9609 23.4299 15.2051 23.6735 15.5064 23.6735H17.6882C17.9895 23.6735 18.2337 23.4299 18.2337 23.1293V19.8638C18.2337 19.5632 17.9895 19.3196 17.6882 19.3196H15.5064C15.2051 19.3196 14.9609 19.5632 14.9609 19.8638ZM16.0518 20.4081H17.1428V22.5851H16.0518V20.4081Z" fill="#0C2455"/>
<path fill-rule="evenodd" clip-rule="evenodd" d="M19.7607 19.8638V23.1293C19.7607 23.4299 20.005 23.6735 20.3062 23.6735H22.488C22.7893 23.6735 23.0335 23.4299 23.0335 23.1293V19.8638C23.0335 19.5632 22.7893 19.3196 22.488 19.3196H20.3062C20.005 19.3196 19.7607 19.5632 19.7607 19.8638ZM20.8517 20.4081H21.9426V22.5851H20.8517V20.4081Z" fill="#0C2455"/>
<path d="M13.0409 8.76001H12.0809V27H13.0409V8.76001Z" fill="#0C2455"/>
<path fill-rule="evenodd" clip-rule="evenodd" d="M7.90154 3.14059L2.14155 8.90058C1.83917 9.20296 2.05333 9.71999 2.48096 9.71999H14.0009C14.4286 9.71999 14.6427 9.20296 14.3404 8.90058L8.58036 3.14059C8.39291 2.95314 8.08899 2.95314 7.90154 3.14059ZM8.23946 4.15406L12.8393 8.75999H3.63959L8.23946 4.15406Z" fill="#0C2455"/>
<path fill-rule="evenodd" clip-rule="evenodd" d="M21.9632 11.6404L25.8111 15.4804H12.0809V16.4404H26.9609C27.3885 16.4404 27.6027 15.9234 27.3003 15.621L22.5003 10.821C22.4103 10.731 22.2882 10.6804 22.1609 10.6804H12.0809V11.6404H21.9632Z" fill="#0C2455"/>
</svg>
