<?xml version="1.0" encoding="UTF-8"?>
<svg xmlns="http://www.w3.org/2000/svg" xmlns:xlink="http://www.w3.org/1999/xlink" width="30pt" height="30pt" viewBox="0 0 30 30" version="1.1">
<g id="surface1">
<path style=" stroke:none;fill-rule:nonzero;fill:rgb(38.431373%,38.431373%,38.431373%);fill-opacity:1;" d="M 7.925781 12.113281 L 13.132812 15.136719 L 8.441406 17.859375 L 2.832031 16.355469 L 2.832031 18.296875 L 7.214844 19.472656 L 6.035156 23.882812 L 7.714844 24.851562 L 9.113281 19.640625 L 14.0625 16.765625 L 14.0625 21.9375 L 9.890625 26.109375 L 11.574219 27.078125 L 15.117188 23.535156 L 18.582031 27 L 20.261719 26.027344 L 15.9375 21.703125 L 15.9375 16.765625 L 20.800781 19.589844 L 22.222656 24.898438 L 23.90625 23.925781 L 22.710938 19.472656 L 27.1875 18.273438 L 27.1875 16.332031 L 21.535156 17.847656 L 16.867188 15.136719 L 22.050781 12.125 L 27.1875 13.503906 L 27.1875 11.5625 L 23.105469 10.46875 L 24.234375 6.261719 L 22.550781 5.292969 L 21.164062 10.472656 L 15.9375 13.507812 L 15.9375 7.652344 L 19.851562 3.734375 L 18.171875 2.765625 L 14.941406 5.996094 L 11.757812 2.816406 L 10.078125 3.785156 L 14.0625 7.769531 L 14.0625 13.507812 L 8.75 10.421875 L 7.386719 5.339844 L 5.707031 6.308594 L 6.820312 10.46875 L 2.832031 11.539062 L 2.832031 13.476562 Z M 7.925781 12.113281 "/>
</g>
</svg>
