<svg width="30" height="30" viewBox="0 0 30 30" fill="none" xmlns="http://www.w3.org/2000/svg">
<rect width="30" height="30" fill="white"/>
<path d="M22.2518 6.62042H22.2517H19.9053V5.56306C19.9053 5.40085 19.8424 5.24505 19.73 5.12999C19.6177 5.01489 19.465 4.95 19.3056 4.95C19.1462 4.95 18.9935 5.01489 18.8812 5.12999C18.7688 5.24505 18.706 5.40085 18.706 5.56306V6.63919H11.294V5.56306C11.294 5.40085 11.2312 5.24505 11.1188 5.12999C11.0065 5.01489 10.8538 4.95 10.6944 4.95C10.535 4.95 10.3823 5.01489 10.27 5.12999C10.1576 5.24505 10.0947 5.40085 10.0947 5.56306V6.63919L7.74826 6.63919L7.74819 6.63919C7.00597 6.6402 6.29469 6.9427 5.77024 7.47995C5.24583 8.01715 4.95099 8.74522 4.95 9.50444V9.5045V22.1847C4.95 22.9442 5.24453 23.6729 5.76917 24.2103C6.29385 24.7478 7.00572 25.05 7.74826 25.05H22.2517C22.9943 25.05 23.7062 24.7478 24.2308 24.2103C24.7555 23.6729 25.05 22.9442 25.05 22.1847V9.48574V9.48567C25.049 8.72645 24.7542 7.99838 24.2298 7.46118C23.7053 6.92393 22.994 6.62143 22.2518 6.62042ZM7.74837 7.84655H10.0947V8.92267C10.0947 9.08488 10.1576 9.24069 10.27 9.35575C10.3823 9.47085 10.535 9.53574 10.6944 9.53574C10.8538 9.53574 11.0065 9.47084 11.1188 9.35575C11.2312 9.24069 11.294 9.08488 11.294 8.92267V7.84655H18.706V8.92267C18.706 9.08488 18.7688 9.24069 18.8812 9.35575C18.9935 9.47085 19.1462 9.53574 19.3056 9.53574C19.465 9.53574 19.6177 9.47085 19.73 9.35575C19.8424 9.24069 19.9053 9.08488 19.9053 8.92267V7.84655H22.2516C22.675 7.84751 23.0811 8.02023 23.3809 8.32732C23.6807 8.63445 23.8498 9.05099 23.8507 9.48584V11.8306H6.1493L6.1493 9.48584C6.1493 9.48583 6.1493 9.48581 6.1493 9.48579C6.15026 9.05095 6.31931 8.63444 6.61912 8.32732C6.9189 8.02023 7.32495 7.84751 7.74837 7.84655ZM22.2516 23.8239H7.74837C7.32495 23.8229 6.9189 23.6502 6.61912 23.3431C6.31931 23.036 6.15026 22.6195 6.1493 22.1846C6.1493 22.1846 6.1493 22.1846 6.1493 22.1846L6.1493 13.0568H23.8507V22.1846C23.8498 22.6194 23.6807 23.036 23.3809 23.3431C23.0811 23.6502 22.675 23.8229 22.2516 23.8239Z" fill="#0C2455" stroke="white" stroke-width="0.1"/>
<rect x="17" y="16" width="1" height="4" rx="0.5" transform="rotate(90 17 16)" fill="#0C2455"/>
<rect x="23" y="16" width="1" height="4" rx="0.5" transform="rotate(90 23 16)" fill="#0C2455"/>
<rect x="23" y="20" width="1" height="4" rx="0.5" transform="rotate(90 23 20)" fill="#0C2455"/>
<rect x="11" y="16" width="1" height="4" rx="0.5" transform="rotate(90 11 16)" fill="#0C2455"/>
</svg>
