<svg width="1024" height="500" viewBox="0 0 1024 500" fill="none" xmlns="http://www.w3.org/2000/svg">
<rect width="1024" height="500" fill="#F0F0F9"/>
<path d="M506.479 235.934C506.122 235.309 505.23 235.22 504.761 235.778L484.252 263.059C483.694 263.707 484.118 264.712 484.966 264.779L520.918 267.904C521.766 267.971 522.347 267.056 521.923 266.319L506.479 235.934ZM529.89 250.423C529.533 249.798 528.64 249.709 528.171 250.267L522.637 255.871C522.495 256.035 522.409 256.24 522.389 256.456C522.369 256.672 522.416 256.889 522.525 257.076L528.194 268.127C528.372 268.418 528.662 268.618 529.019 268.641L539.04 269.511C539.888 269.578 540.468 268.663 540.044 267.926L529.89 250.423ZM532.322 241.56C534.822 241.538 536.986 239.707 537.455 237.274C538.08 233.97 535.536 230.956 532.166 231C529.667 231.023 527.502 232.853 527.033 235.287C526.408 238.591 528.952 241.605 532.322 241.56Z" fill="#D5DBE5"/>
<path d="M556.445 221.727L541.761 220.454L540.4 205.496C540.11 202.17 537.164 199.714 533.816 200.027L467.513 206.01C464.188 206.3 461.733 209.247 462.023 212.574L468.004 278.768C468.294 282.094 471.24 284.55 474.588 284.237L478.091 283.925L477.757 287.653C477.466 290.98 479.921 293.904 483.269 294.194L549.617 299.977C552.942 300.267 555.888 297.811 556.178 294.485L561.98 228.268C562.248 224.964 559.793 222.017 556.445 221.727ZM474.409 259.992C473.583 260.059 472.847 259.456 472.758 258.63L468.741 213.98C468.674 213.154 469.276 212.417 470.102 212.35L532.41 206.747C533.236 206.68 533.972 207.283 534.062 208.109L535.133 219.896L490.12 215.945C486.795 215.654 483.849 218.11 483.559 221.437L480.234 259.456L474.409 259.992ZM555.24 229.719L551.335 274.37C551.268 275.196 550.532 275.821 549.706 275.754L545.555 275.397L487.375 270.329C486.549 270.262 485.925 269.525 485.991 268.699L486.84 258.898L489.897 224.049C489.964 223.223 490.7 222.598 491.526 222.665L535.713 226.527L542.341 227.107L553.857 228.112C554.705 228.157 555.33 228.893 555.24 229.719Z" fill="#D5DBE5"/>
</svg>
