<svg width="320" height="208" viewBox="0 0 320 208" fill="none" xmlns="http://www.w3.org/2000/svg">
<rect width="320" height="208" fill="#F0F0F9"/>
<path d="M155.584 92.7473C155.298 92.2472 154.584 92.1758 154.209 92.6223L137.802 114.447C137.355 114.965 137.694 115.769 138.373 115.823L167.135 118.323C167.813 118.377 168.277 117.644 167.938 117.055L155.584 92.7473ZM174.312 104.339C174.026 103.838 173.312 103.767 172.937 104.214L168.509 108.696C168.396 108.828 168.327 108.992 168.311 109.164C168.295 109.337 168.333 109.511 168.42 109.661L172.955 118.502C173.098 118.734 173.33 118.895 173.615 118.912L181.632 119.609C182.31 119.663 182.774 118.93 182.435 118.341L174.312 104.339ZM176.258 97.248C178.257 97.2302 179.989 95.7657 180.364 93.8189C180.864 91.1756 178.829 88.7645 176.133 88.8002C174.133 88.8181 172.401 90.2826 172.027 92.2293C171.527 94.8726 173.562 97.2838 176.258 97.248Z" fill="#D5DBE5"/>
<path d="M195.556 81.3815L183.809 80.3635L182.72 68.3972C182.488 65.736 180.131 63.7714 177.453 64.0215L124.411 68.808C121.75 69.0402 119.787 71.3977 120.019 74.0589L124.803 127.014C125.035 129.675 127.392 131.64 130.07 131.39L132.873 131.14L132.605 134.123C132.373 136.784 134.337 139.123 137.015 139.356L190.093 143.981C192.753 144.214 195.11 142.249 195.342 139.588L199.984 86.6146C200.198 83.9712 198.234 81.6137 195.556 81.3815ZM129.927 111.994C129.267 112.047 128.678 111.565 128.606 110.904L125.392 75.1841C125.339 74.5232 125.821 73.9338 126.482 73.8803L176.328 69.3974C176.989 69.3438 177.578 69.826 177.649 70.4868L178.506 79.917L142.496 76.7557C139.836 76.5236 137.479 78.4882 137.247 81.1493L134.587 111.565L129.927 111.994ZM194.592 87.7755L191.468 123.496C191.414 124.157 190.825 124.657 190.165 124.603L186.844 124.317L140.3 120.263C139.64 120.209 139.14 119.62 139.193 118.959L139.872 111.119L142.318 83.239C142.371 82.5782 142.96 82.0781 143.621 82.1317L178.971 85.2215L184.273 85.6858L193.485 86.4895C194.164 86.5252 194.664 87.1146 194.592 87.7755Z" fill="#D5DBE5"/>
</svg>
